<svg width="36" height="36" viewBox="0 0 36 36" fill="none" xmlns="http://www.w3.org/2000/svg">
<path d="M21.0531 18.9346L29.782 10.2056C30.1963 9.79208 30.4293 9.23091 30.4299 8.64555C30.4304 8.0602 30.1983 7.49861 29.7848 7.08434C29.3713 6.67006 28.8101 6.43704 28.2247 6.43652C27.6394 6.436 27.0778 6.66804 26.6635 7.08158L17.9346 15.8105L9.20563 7.08158C8.79135 6.66731 8.22948 6.43457 7.6436 6.43457C7.05773 6.43457 6.49586 6.66731 6.08158 7.08158C5.66731 7.49586 5.43457 8.05773 5.43457 8.6436C5.43457 9.22948 5.66731 9.79135 6.08158 10.2056L14.8105 18.9346L6.08158 27.6635C5.66731 28.0778 5.43457 28.6397 5.43457 29.2255C5.43457 29.8114 5.66731 30.3733 6.08158 30.7876C6.49586 31.2018 7.05773 31.4346 7.6436 31.4346C8.22948 31.4346 8.79135 31.2018 9.20563 30.7876L17.9346 22.0586L26.6635 30.7876C27.0778 31.2018 27.6397 31.4346 28.2255 31.4346C28.8114 31.4346 29.3733 31.2018 29.7876 30.7876C30.2018 30.3733 30.4346 29.8114 30.4346 29.2255C30.4346 28.6397 30.2018 28.0778 29.7876 27.6635L21.0531 18.9346Z" fill="#F7DBA7"/>
</svg>
