<svg width="32" height="32" viewBox="0 0 32 32" fill="none" xmlns="http://www.w3.org/2000/svg">
<rect width="32" height="32" fill="#041F1E"/>
<path d="M27.25 6H4.75C3.7835 6 3 6.7835 3 7.75V24.25C3 25.2165 3.7835 26 4.75 26H27.25C28.2165 26 29 25.2165 29 24.25V7.75C29 6.7835 28.2165 6 27.25 6Z" stroke="#F7DBA7" stroke-width="1.5" stroke-linejoin="round"/>
<path d="M27.25 21H25.75C24.7835 21 24 21.7835 24 22.75V24.25C24 25.2165 24.7835 26 25.75 26H27.25C28.2165 26 29 25.2165 29 24.25V22.75C29 21.7835 28.2165 21 27.25 21Z" stroke="#F7DBA7" stroke-width="1.5" stroke-linejoin="round"/>
<path d="M27.25 16H25.75C24.7835 16 24 16.7835 24 17.75V19.25C24 20.2165 24.7835 21 25.75 21H27.25C28.2165 21 29 20.2165 29 19.25V17.75C29 16.7835 28.2165 16 27.25 16Z" stroke="#F7DBA7" stroke-width="1.5" stroke-linejoin="round"/>
<path d="M27.25 11H25.75C24.7835 11 24 11.7835 24 12.75V14.25C24 15.2165 24.7835 16 25.75 16H27.25C28.2165 16 29 15.2165 29 14.25V12.75C29 11.7835 28.2165 11 27.25 11Z" stroke="#F7DBA7" stroke-width="1.5" stroke-linejoin="round"/>
<path d="M27.25 6H25.75C24.7835 6 24 6.7835 24 7.75V9.25C24 10.2165 24.7835 11 25.75 11H27.25C28.2165 11 29 10.2165 29 9.25V7.75C29 6.7835 28.2165 6 27.25 6Z" stroke="#F7DBA7" stroke-width="1.5" stroke-linejoin="round"/>
<path d="M6.25 21H4.75C3.7835 21 3 21.7835 3 22.75V24.25C3 25.2165 3.7835 26 4.75 26H6.25C7.2165 26 8 25.2165 8 24.25V22.75C8 21.7835 7.2165 21 6.25 21Z" stroke="#F7DBA7" stroke-width="1.5" stroke-linejoin="round"/>
<path d="M6.25 16H4.75C3.7835 16 3 16.7835 3 17.75V19.25C3 20.2165 3.7835 21 4.75 21H6.25C7.2165 21 8 20.2165 8 19.25V17.75C8 16.7835 7.2165 16 6.25 16Z" stroke="#F7DBA7" stroke-width="1.5" stroke-linejoin="round"/>
<path d="M6.25 11H4.75C3.7835 11 3 11.7835 3 12.75V14.25C3 15.2165 3.7835 16 4.75 16H6.25C7.2165 16 8 15.2165 8 14.25V12.75C8 11.7835 7.2165 11 6.25 11Z" stroke="#F7DBA7" stroke-width="1.5" stroke-linejoin="round"/>
<path d="M6.25 6H4.75C3.7835 6 3 6.7835 3 7.75V9.25C3 10.2165 3.7835 11 4.75 11H6.25C7.2165 11 8 10.2165 8 9.25V7.75C8 6.7835 7.2165 6 6.25 6Z" stroke="#F7DBA7" stroke-width="1.5" stroke-linejoin="round"/>
<path d="M22.25 6H9.75C8.7835 6 8 6.7835 8 7.75V14.25C8 15.2165 8.7835 16 9.75 16H22.25C23.2165 16 24 15.2165 24 14.25V7.75C24 6.7835 23.2165 6 22.25 6Z" stroke="#F7DBA7" stroke-width="1.5" stroke-linejoin="round"/>
<path d="M22.25 16H9.75C8.7835 16 8 16.7835 8 17.75V24.25C8 25.2165 8.7835 26 9.75 26H22.25C23.2165 26 24 25.2165 24 24.25V17.75C24 16.7835 23.2165 16 22.25 16Z" stroke="#F7DBA7" stroke-width="1.5" stroke-linejoin="round"/>
</svg>
