<svg width="37" height="37" viewBox="0 0 37 37" fill="none" xmlns="http://www.w3.org/2000/svg">
<path d="M18.9017 7.31906C18.7941 7.21614 18.651 7.1587 18.5021 7.1587C18.3532 7.1587 18.21 7.21614 18.1024 7.31906L4.79834 20.0284C4.74184 20.0825 4.69689 20.1474 4.66621 20.2193C4.63553 20.2913 4.61976 20.3686 4.61984 20.4468L4.61768 32.375C4.61768 32.9883 4.86131 33.5765 5.29499 34.0102C5.72867 34.4439 6.31686 34.6875 6.93018 34.6875H13.8749C14.1816 34.6875 14.4757 34.5657 14.6925 34.3488C14.9093 34.132 15.0312 33.8379 15.0312 33.5313V23.7031C15.0312 23.5498 15.0921 23.4027 15.2005 23.2943C15.3089 23.1859 15.4559 23.125 15.6093 23.125H21.3905C21.5439 23.125 21.6909 23.1859 21.7993 23.2943C21.9077 23.4027 21.9687 23.5498 21.9687 23.7031V33.5313C21.9687 33.8379 22.0905 34.132 22.3073 34.3488C22.5241 34.5657 22.8182 34.6875 23.1249 34.6875H30.0667C30.6801 34.6875 31.2682 34.4439 31.7019 34.0102C32.1356 33.5765 32.3792 32.9883 32.3792 32.375V20.4468C32.3793 20.3686 32.3636 20.2913 32.3329 20.2193C32.3022 20.1474 32.2572 20.0825 32.2007 20.0284L18.9017 7.31906Z" fill="#F7DBA7"/>
<path d="M35.4759 17.6437L30.0705 12.4723V4.625C30.0705 4.31834 29.9487 4.02425 29.7318 3.80741C29.515 3.59057 29.2209 3.46875 28.9142 3.46875H25.4455C25.1388 3.46875 24.8447 3.59057 24.6279 3.80741C24.411 4.02425 24.2892 4.31834 24.2892 4.625V6.9375L20.1036 2.93543C19.7119 2.53941 19.1295 2.3125 18.5 2.3125C17.8728 2.3125 17.2917 2.53941 16.9001 2.93615L1.52917 17.6422C1.07968 18.0758 1.02331 18.7891 1.43233 19.2588C1.53504 19.3774 1.66081 19.4738 1.80197 19.5422C1.94313 19.6106 2.09674 19.6496 2.25344 19.6568C2.41015 19.6639 2.56667 19.6391 2.71349 19.5839C2.86031 19.5286 2.99434 19.4441 3.10745 19.3354L18.1026 5.00656C18.2102 4.90364 18.3533 4.8462 18.5022 4.8462C18.6511 4.8462 18.7942 4.90364 18.9018 5.00656L33.8984 19.3354C34.1193 19.5472 34.4152 19.6628 34.7212 19.6569C35.0272 19.6509 35.3184 19.5239 35.5309 19.3036C35.9746 18.844 35.9377 18.0852 35.4759 17.6437Z" fill="#F7DBA7"/>
</svg>
