<svg width="444" height="249" viewBox="0 0 444 249" fill="none" xmlns="http://www.w3.org/2000/svg">
<path d="M9.08203 86.207H13.5742C38.1836 86.207 50.4883 86.4674 50.4883 86.9883C51.1393 90.4388 51.4648 93.0755 51.4648 94.8984C51.1393 96.0703 50.6836 98.2839 50.0977 101.539C49.7721 102.451 49.4141 102.906 49.0234 102.906C44.7917 102.906 42.6758 102.32 42.6758 101.148V100.953L44.043 95.9727C43.7174 93.4987 43.2292 92.2617 42.5781 92.2617L41.3086 92.0664H38.6719L18.2617 93.043C17.6107 93.043 17.2852 93.694 17.2852 94.9961V95.4844L17.6758 112.086C17.6758 112.477 19.0755 112.672 21.875 112.672L28.125 112.965C28.125 110.947 29.069 109.938 30.957 109.938H33.2031L33.5938 110.426V111.891C33.5938 112.477 33.8216 113.421 34.2773 114.723C33.2357 120.061 32.3242 122.73 31.543 122.73L27.3438 121.07L26.8555 120.973V120.68L27.6367 119.605V119.117L18.2617 118.531C17.6107 118.792 17.2852 119.15 17.2852 119.605V122.926L17.0898 124.879C17.0898 127.353 17.5456 133.212 18.457 142.457C18.8477 142.717 21.0612 143.01 25.0977 143.336L25.293 143.434C25.6836 143.499 25.8789 143.661 25.8789 143.922C25.5534 147.047 24.707 148.609 23.3398 148.609H23.2422V148.805L21.0938 148.609H19.1406C14.974 149.065 9.50521 149.391 2.73438 149.586L2.63672 149.781H2.53906L1.66016 149.488L1.75781 148.121L1.5625 147.145C1.75781 146.884 1.92057 146.135 2.05078 144.898C2.05078 144.508 4.58984 144.052 9.66797 143.531C10.9049 143.336 11.5234 142.685 11.5234 141.578L12.4023 126.832L13.0859 127.125H13.3789L13.5742 126.539V124L12.207 122.926L11.8164 119.312L12.207 117.848C11.9466 116.741 11.8164 112.249 11.8164 104.371V99.1953C11.8164 97.2422 11.9141 95.4844 12.1094 93.9219C12.1094 93.2708 11.6211 92.8802 10.6445 92.75H9.27734C4.58984 92.75 2.24609 91.5781 2.24609 89.2344L2.05078 87.9648C2.18099 87.0534 2.40885 86.5977 2.73438 86.5977H3.02734C3.15755 86.5977 3.32031 86.9883 3.51562 87.7695H3.71094L3.90625 87.4766V87.2812H3.71094C3.71094 86.5651 5.5013 86.207 9.08203 86.207ZM28.3203 88.2578V88.4531H28.6133C29.069 88.4531 29.3294 88.3229 29.3945 88.0625V87.8672H29.1016C28.5807 87.9974 28.3203 88.1276 28.3203 88.2578ZM5.37109 88.4531C5.63151 89.1042 6.38021 89.4297 7.61719 89.4297H8.10547V89.625C7.45443 89.8854 7.12891 90.2435 7.12891 90.6992V91.0898H7.22656C10.0911 90.8945 11.5234 90.6341 11.5234 90.3086V90.2109L10.5469 89.625V89.332C10.5469 89.1367 10.9701 88.9414 11.8164 88.7461V88.4531C10.5143 88.1276 9.17969 87.9648 7.8125 87.9648C6.1849 88.0299 5.37109 88.1927 5.37109 88.4531ZM49.6094 90.6016L49.3164 90.2109C48.7305 91.5781 48.4375 92.4896 48.4375 92.9453V93.2383C48.4375 93.8242 48.6654 94.2474 49.1211 94.5078H49.3164L49.5117 94.2148V93.2383L49.4141 93.043C49.5443 92.6523 49.6094 92.1966 49.6094 91.6758V90.6016ZM19.9219 91.4805H19.6289V91.6758H19.9219V91.4805ZM48.9258 98.1211H48.7305V98.2188C48.8607 98.5443 48.9909 98.7396 49.1211 98.8047H49.4141V98.6094C49.349 98.4792 49.2188 98.349 49.0234 98.2188L48.9258 98.1211ZM13.8672 100.758H13.5742V101.148H13.8672V100.758ZM32.0312 111.207H31.543V111.402L31.9336 111.695H32.2266V111.5L32.0312 111.207ZM17.7734 116.48L17.4805 116.871L17.7734 116.969H19.8242C19.8242 116.708 19.2057 116.546 17.9688 116.48H17.7734ZM12.5977 134.254L12.4023 134.547L12.5977 135.719H12.793L13.0859 135.426V134.742L12.5977 134.254ZM14.2578 136.5L13.9648 136.305C13.7044 136.76 13.5742 137.281 13.5742 137.867L13.6719 138.16H13.8672C14.1276 138.095 14.2578 137.77 14.2578 137.184V136.5ZM12.793 136.5H12.5977V136.891H12.793V136.5ZM58.6914 80.0547L62.0117 79.5664C64.2904 79.5664 66.0807 80.7383 67.3828 83.082L68.0664 86.207C67.9362 87.444 67.2201 89.0716 65.918 91.0898C65.0716 91.9362 63.7695 92.3594 62.0117 92.3594C57.9102 92.3594 55.3711 91.7409 54.3945 90.5039C53.418 89.2018 52.9622 87.3789 53.0273 85.0352C52.7669 85.0352 52.6367 84.9701 52.6367 84.8398V84.6445C54.5898 81.5846 56.6081 80.0547 58.6914 80.0547ZM56.7383 82.4961V82.5938C58.9518 82.3333 60.0586 82.0404 60.0586 81.7148L59.5703 81.5195C57.6823 81.8451 56.7383 82.1706 56.7383 82.4961ZM58.3984 85.3281H58.4961L59.082 85.4258H59.2773C59.9935 85.4258 60.4492 85.1654 60.6445 84.6445L60.5469 84.4492H59.375C58.8542 84.4492 58.5286 84.7422 58.3984 85.3281ZM65.4297 84.4492L65.1367 84.9375V85.3281H65.2344L65.5273 84.9375V84.4492H65.4297ZM63.0859 87.6719V87.9648H63.4766C63.9323 87.9648 64.2904 87.737 64.5508 87.2812V86.9883H64.3555C63.8997 86.9883 63.4766 87.2161 63.0859 87.6719ZM60.9375 89.4297L60.6445 89.7227V89.918H62.4023L62.6953 89.7227L62.4023 89.4297H60.9375ZM48.5352 98.707H48.8281C49.349 99.1628 50 99.3906 50.7812 99.3906L52.0508 98.8047C60.9049 98.8047 65.332 99.0651 65.332 99.5859L65.4297 100.27V101.93C66.0156 103.232 66.3086 104.469 66.3086 105.641V107.203C65.5273 117.815 65.0065 126.409 64.7461 132.984C64.6159 133.375 64.4857 134.059 64.3555 135.035C64.4206 135.296 64.7135 135.426 65.2344 135.426H65.5273C69.043 135.426 70.8008 135.849 70.8008 136.695L70.7031 136.891V137.477C71.4844 139.039 71.875 141.513 71.875 144.898L72.2656 148.805L71.9727 149L67.6758 149.195H57.9102C50.6185 149.195 46.9727 148.609 46.9727 147.438C46.9727 146.721 46.7773 146.005 46.3867 145.289C46.582 144.833 46.9076 144.475 47.3633 144.215H47.6562C47.9167 144.475 48.2096 144.605 48.5352 144.605H48.7305C50.6185 144.605 52.8646 144.443 55.4688 144.117V143.922C49.8698 143.531 47.0703 143.076 47.0703 142.555L46.9727 141.773V140.699L46.7773 138.16C46.7773 137.509 49.2188 137.184 54.1016 137.184C54.7526 137.184 55.0781 135.719 55.0781 132.789L56.25 107.105H56.0547C54.2318 107.105 53.3203 106.975 53.3203 106.715C53.3203 106.65 53.418 106.552 53.6133 106.422C49.707 106.422 47.7539 105.966 47.7539 105.055C47.4935 104.99 47.3633 104.729 47.3633 104.273L47.8516 103.102C47.8516 102.841 47.6562 102.483 47.2656 102.027C47.7865 101.507 48.1445 100.465 48.3398 98.9023L48.5352 98.707ZM50.0977 100.66V101.051H50.5859C52.2786 101.051 53.125 100.921 53.125 100.66L52.9297 100.27H52.6367C50.944 100.27 50.0977 100.4 50.0977 100.66ZM63.3789 99.9766L63.0859 100.27L63.4766 100.562H63.6719V100.27L63.3789 99.9766ZM52.2461 102.027H50.4883V102.32C50.4883 102.581 50.944 102.711 51.8555 102.711H52.9297H53.2227H56.4453C57.4219 102.711 57.9102 102.548 57.9102 102.223V102.125C57.9102 101.799 56.0221 101.767 52.2461 102.027ZM60.9375 102.125L60.0586 102.027V102.223C60.5143 102.223 61.0677 102.548 61.7188 103.199H61.9141C62.0443 103.199 62.1094 103.102 62.1094 102.906H62.3047C62.5651 102.906 62.7279 103.199 62.793 103.785H62.9883L64.3555 102.809V102.223L62.3047 102.125H60.9375ZM60.5469 107.594L61.0352 109.059L60.3516 110.816C60.612 111.402 60.8398 111.695 61.0352 111.695H61.1328L61.3281 111.109V110.523C61.3281 108.18 61.6862 107.008 62.4023 107.008L62.6953 106.617V106.227L62.4023 105.934H61.8164C60.9701 105.934 60.5469 106.487 60.5469 107.594ZM57.5195 116.871L57.2266 129.469C57.2917 129.924 57.3893 130.152 57.5195 130.152C57.7148 130.152 57.8451 129.859 57.9102 129.273L57.8125 127.809C58.138 127.483 58.4961 126.181 58.8867 123.902V123.316L58.6914 121.949C59.082 121.624 59.2773 121.396 59.2773 121.266C59.0169 120.549 58.8867 119.833 58.8867 119.117V118.922C59.1471 118.922 59.4727 115.276 59.8633 107.984C59.668 107.464 59.4727 107.203 59.2773 107.203C58.3008 107.203 57.7148 110.426 57.5195 116.871ZM62.3047 108.277L61.9141 108.375V108.961C61.9141 109.352 62.0768 109.645 62.4023 109.84H62.6953L62.9883 109.449V108.961C62.8581 108.635 62.6302 108.408 62.3047 108.277ZM61.8164 124.195H61.3281C60.8073 126.604 60.5469 128.395 60.5469 129.566H60.6445C60.9701 129.566 61.3932 128.232 61.9141 125.562V124.879L61.8164 124.195ZM59.9609 133.375V134.059H60.1562C60.4818 133.928 60.6445 133.538 60.6445 132.887V132.203H60.3516C60.2214 132.203 60.0911 132.594 59.9609 133.375ZM60.1562 134.84L59.8633 135.23V135.719H60.1562L60.5469 135.426V135.133L60.2539 134.84H60.1562ZM67.9688 137.184L67.6758 137.281C68.0664 137.607 68.7826 137.802 69.8242 137.867V137.574C69.8242 137.314 69.401 137.184 68.5547 137.184H67.9688ZM68.3594 141.285L67.1875 141.578C67.3177 142.359 67.9036 142.75 68.9453 142.75H69.2383V142.457L69.043 142.164C69.043 142.099 69.3034 141.904 69.8242 141.578V141.09C69.8242 140.634 69.694 140.374 69.4336 140.309H69.043C68.8477 140.374 68.6198 140.699 68.3594 141.285ZM49.707 140.406L49.0234 140.602V140.699C49.5443 141.22 51.5625 141.513 55.0781 141.578H55.7617C56.2826 141.578 56.6081 141.415 56.7383 141.09V140.895C54.0039 140.569 51.6602 140.406 49.707 140.406ZM58.8867 141.578L59.2773 142.066C59.8633 142.066 60.1562 141.741 60.1562 141.09H59.668C59.2773 141.09 59.0169 141.253 58.8867 141.578ZM68.0664 143.531L67.7734 143.922V144.117H67.9688L68.2617 143.727V143.531H68.0664ZM60.5469 144.117L59.2773 144.215H57.9102V144.605L59.2773 144.703L62.1094 144.508V144.215H61.7188L60.5469 144.117ZM70.5078 147.438L70.1172 147.73V148.023H70.7031L70.8008 147.73L70.7031 147.438H70.5078ZM79.1016 76.0508L80.5664 75.6602L84.668 76.7344L91.0156 76.4414C92.6432 76.4414 93.457 76.9297 93.457 77.9062C93.0664 80.3802 92.8711 83.668 92.8711 87.7695V103.102L92.7734 117.848L92.8711 121.754L92.3828 140.309C94.5964 140.895 97.9492 141.318 102.441 141.578L102.539 141.676V143.043C102.539 143.368 102.897 143.889 103.613 144.605C102.897 146.168 102.083 148.479 101.172 151.539L100.293 152.223H100C99.6094 151.637 98.7956 151.344 97.5586 151.344L81.543 149.195C76.7253 149.195 74.3164 148.902 74.3164 148.316C75.0977 146.754 75.6836 144.215 76.0742 140.699H76.1719V140.602L77.1484 140.699H78.125C78.4505 140.504 79.3945 140.243 80.957 139.918C81.6081 140.243 82.0964 140.406 82.4219 140.406H83.5938C84.2448 140.406 84.5703 139.755 84.5703 138.453C84.7005 136.891 85.026 129.762 85.5469 117.066C85.0911 113.16 84.7005 102.418 84.375 84.8398C84.1146 84.3841 83.7891 84.1562 83.3984 84.1562L79.0039 84.4492C78.2227 84.3841 77.832 84.1237 77.832 83.668C78.0924 78.5898 78.5156 76.0508 79.1016 76.0508ZM80.0781 77.9062L79.4922 78.1016V78.2969C79.4922 78.8828 79.8177 79.1758 80.4688 79.1758H80.7617C81.4779 79.1758 82.194 78.8177 82.9102 78.1016V77.9062H80.0781ZM85.0586 77.9062L84.8633 78.1992L85.6445 78.3945H86.6211L87.0117 78.1016V77.9062H85.0586ZM88.1836 81.7148V81.8125L88.4766 82.1055H88.8672C89.4531 81.7148 90.1693 81.3242 91.0156 80.9336C91.3411 80.4128 91.5039 80.0221 91.5039 79.7617L91.3086 79.5664H91.0156C90.4297 79.5664 89.8438 79.9245 89.2578 80.6406C88.5417 80.8359 88.1836 81.194 88.1836 81.7148ZM79.5898 80.1523L79.1016 80.6406V81.3242L79.4922 81.7148H81.4453H82.1289V81.3242L80.3711 80.543L79.7852 80.1523H79.5898ZM87.207 88.0625L87.0117 88.3555V88.7461L87.207 89.0391H87.4023L87.5 88.7461V88.3555L87.4023 88.0625H87.207ZM87.0117 93.5312L86.7188 93.8242V94.0195H87.207V93.5312H87.0117ZM91.3086 100.27H91.0156V100.367L91.4062 100.855H91.5039V100.562L91.3086 100.27ZM91.5039 102.027L91.1133 101.734L91.0156 103.688V104.859H91.1133C91.3737 104.859 91.5039 104.404 91.5039 103.492V102.027ZM86.4258 104.273V104.664L86.6211 104.859L86.8164 104.664V104.176L86.7188 103.98C86.7188 103.915 86.9792 103.72 87.5 103.395V103.102H87.1094C86.6536 103.362 86.4258 103.753 86.4258 104.273ZM91.4062 105.543H91.0156V106.324H91.1133L91.4062 106.129V105.543ZM87.793 116.676V116.969H87.9883C88.3138 116.969 88.4766 115.634 88.4766 112.965C88.3464 112.965 88.1185 114.202 87.793 116.676ZM90.0391 121.266L89.8438 121.461L89.6484 127.613V135.816L89.8438 139.625L89.9414 139.723H90.625C90.8854 139.723 91.0156 139.43 91.0156 138.844C90.9505 127.125 90.625 121.266 90.0391 121.266ZM86.0352 135.816V136.207C86.0352 136.663 86.1654 136.891 86.4258 136.891L86.8164 136.305V135.621C86.6862 134.84 86.556 134.449 86.4258 134.449C86.1654 134.449 86.0352 134.905 86.0352 135.816ZM80.1758 142.164L79.9805 142.457C79.9805 142.978 80.2083 143.238 80.6641 143.238H80.7617V142.457L80.4688 142.164H80.1758ZM99.4141 142.164L98.8281 142.262V142.457C98.8932 142.848 99.4466 143.043 100.488 143.043L100.977 142.652V142.262L100.391 142.164H99.4141ZM77.3438 142.457L77.1484 142.75V143.043L77.5391 143.238L77.7344 142.848L77.6367 142.457H77.3438ZM82.1289 143.531V143.629L82.6172 143.727H83.2031L83.5938 143.531V143.238H82.9102H82.8125C82.3568 143.238 82.1289 143.336 82.1289 143.531ZM99.8047 145.094L94.2383 144.898V144.996C94.2383 145.387 95.3451 145.615 97.5586 145.68H100.098L100.781 145.484V145.191L99.8047 145.094ZM81.4453 145.191L81.1523 145.68L81.3477 145.973H82.8125C83.8542 145.973 84.375 145.875 84.375 145.68V145.484C83.6589 145.289 82.7474 145.191 81.6406 145.191H81.4453ZM96.6797 147.633L97.0703 147.73H99.0234C99.6094 147.73 99.9349 147.633 100 147.438V147.145L99.4141 147.047H97.9492C97.1029 147.112 96.6797 147.307 96.6797 147.633ZM76.1719 147.145L75.8789 147.633L76.1719 147.73H76.6602L76.9531 147.633L76.5625 147.145H76.1719ZM99.5117 149.488H98.9258V149.879L99.5117 150.074H99.8047L100.391 149.879V149.488H99.8047H99.5117ZM121.68 99.293C122.396 99.4232 122.754 99.5208 122.754 99.5859L122.363 100.27V100.367H122.559L127.539 100.27C133.203 100.27 136.979 101.702 138.867 104.566C140.365 106.52 141.178 107.659 141.309 107.984L141.699 108.082C142.35 108.082 146.029 106.324 152.734 102.809C153.646 102.353 154.395 102.125 154.98 102.125C157.65 102.125 160.417 103.134 163.281 105.152C168.815 109.514 171.582 113.225 171.582 116.285C172.168 117.522 173.177 124.195 174.609 136.305V138.941C174.609 139.527 174.772 139.885 175.098 140.016H175.488C176.009 140.016 177.051 139.755 178.613 139.234C179.655 139.234 180.176 141.155 180.176 144.996C180.306 146.949 180.371 148.414 180.371 149.391H179.004C176.27 149.846 173.861 150.074 171.777 150.074L168.652 149.684L162.988 149.879H162.012C161.882 149.879 161.816 149.618 161.816 149.098L160.547 147.828V147.73L160.84 146.754V146.559L160.352 143.922V142.652C160.352 141.806 161.003 141.383 162.305 141.383C164.648 141.643 165.625 140.764 165.234 138.746C165.169 133.668 165.365 129.859 165.82 127.32V127.125L165.625 121.266C165.625 120.224 164.746 119.02 162.988 117.652L162.207 117.457H161.523L160.742 117.848C160.612 117.848 160.547 117.555 160.547 116.969C159.049 115.016 156.641 114.039 153.32 114.039C149.089 114.43 146.549 115.699 145.703 117.848C145.573 118.434 145.443 119.964 145.312 122.438L145.508 124.684V131.715L145.41 134.547C145.41 137.477 146.224 139.169 147.852 139.625C148.568 139.755 148.926 139.983 148.926 140.309C148.21 143.564 147.754 145.354 147.559 145.68L145.117 146.168L136.816 145.484L135.84 145.68C134.733 145.68 134.18 144.02 134.18 140.699V140.309C134.18 139.918 135.156 139.43 137.109 138.844C137.63 138.844 137.891 138.583 137.891 138.062C137.565 136.435 137.402 134.612 137.402 132.594L137.598 121.852C137.207 120.419 137.012 119.28 137.012 118.434C137.077 116.806 137.305 115.992 137.695 115.992L138.574 116.48H138.672V116.285C138.672 114.853 136.458 112.802 132.031 110.133C130.859 109.677 129.688 109.449 128.516 109.449C126.693 109.449 124.642 110.263 122.363 111.891L122.266 112.379V120.289L122.559 140.699L122.949 141.09H123.34C123.535 141.09 123.665 140.862 123.73 140.406H123.926C125.684 140.406 126.758 140.862 127.148 141.773V142.555L127.246 144.898C127.376 147.568 126.693 148.902 125.195 148.902C124.805 149.033 123.047 149.163 119.922 149.293L107.227 148.512C106.576 148.512 105.957 146.526 105.371 142.555V142.457C105.371 141.871 106.706 141.188 109.375 140.406C109.375 139.951 110.677 139.527 113.281 139.137C113.737 139.072 113.965 138.746 113.965 138.16L114.648 115.309L114.844 109.938C114.844 109.352 114.225 109.059 112.988 109.059C111.751 109.059 110.221 109.221 108.398 109.547C107.292 108.961 106.738 108.342 106.738 107.691C107.259 107.366 107.52 106.845 107.52 106.129V105.348C107.194 103.655 106.803 102.809 106.348 102.809L106.25 102.711V102.516C106.641 102.255 107.096 101.637 107.617 100.66C111.979 100.074 116.667 99.6185 121.68 99.293ZM117.48 108.18V113.062C117.48 114.039 117.285 115.016 116.895 115.992L117.578 116.969L117.383 118.531V119.508L117.578 119.703H117.676C118.197 119.703 118.49 116.155 118.555 109.059V108.961C118.555 108.18 118.327 107.659 117.871 107.398C117.611 107.464 117.48 107.724 117.48 108.18ZM108.496 106.324C108.496 106.975 109.082 107.301 110.254 107.301C111.751 107.301 113.281 106.812 114.844 105.836V105.543H114.453C110.482 105.543 108.496 105.803 108.496 106.324ZM124.707 105.152V105.25L129.785 104.664C131.217 104.664 132.682 105.315 134.18 106.617H134.473V106.227C134.082 104.859 133.398 104.176 132.422 104.176H131.543C127.051 104.176 124.772 104.501 124.707 105.152ZM157.227 103.492C156.836 103.688 156.641 103.85 156.641 103.98C156.641 104.111 157.194 104.339 158.301 104.664C158.887 105.51 159.603 105.934 160.449 105.934H162.305V105.641C162.305 104.99 160.645 104.273 157.324 103.492H157.227ZM111.621 144.02L111.328 144.312C111.328 145.159 112.467 145.322 114.746 144.801C115.007 145.257 115.365 145.484 115.82 145.484C117.448 145.419 119.141 145.257 120.898 144.996V144.605L118.359 144.508C116.732 144.638 114.779 144.573 112.5 144.312L112.012 144.02H111.621ZM127.148 106.617C127.148 106.812 128.06 107.138 129.883 107.594C131.12 108.245 132.194 108.57 133.105 108.57H133.203L133.398 108.277C131.901 106.975 130.241 106.324 128.418 106.324H127.832C127.376 106.389 127.148 106.487 127.148 106.617ZM159.18 111.598L158.887 111.891C160.319 113.453 161.654 114.234 162.891 114.234L163.184 114.039V113.551C162.728 112.965 162.012 112.314 161.035 111.598H159.18ZM154.883 108.082V108.277C155.078 108.603 155.273 108.766 155.469 108.766C158.138 108.766 159.57 108.603 159.766 108.277C159.57 107.691 158.529 107.398 156.641 107.398H156.445C155.469 107.398 154.948 107.626 154.883 108.082ZM168.066 126.148H167.48L167.285 126.539L167.578 130.25V130.543L167.871 130.934H168.066L168.555 130.445V126.637L168.066 126.148ZM108.105 142.066H107.812C107.812 142.652 107.552 143.206 107.031 143.727C107.487 145.94 107.975 147.047 108.496 147.047H108.789L108.203 142.164L108.105 142.066ZM139.453 124.977L139.258 125.855V129.469L139.453 131.227H139.746C140.007 130.641 140.137 129.827 140.137 128.785C140.007 126.246 139.779 124.977 139.453 124.977ZM121.973 102.418V102.516L122.363 102.711L128.711 101.539V101.344H125.781C123.242 101.344 121.973 101.702 121.973 102.418ZM142.48 109.645V110.523L142.871 110.816C143.652 110.816 144.661 110.23 145.898 109.059H143.457C143.001 109.059 142.676 109.254 142.48 109.645ZM120.312 111.891H120.117C119.987 112.932 119.922 114.039 119.922 115.211V116.48L120.117 116.969C120.573 116.969 120.801 116.09 120.801 114.332V113.551C120.801 112.444 120.638 111.891 120.312 111.891ZM164.355 109.645H164.062V110.23C164.323 111.012 164.941 111.793 165.918 112.574V112.867H166.602V112.672C166.602 111.956 165.853 110.947 164.355 109.645ZM149.219 106.617V106.812H149.316C149.707 106.812 150.814 106.064 152.637 104.566V104.176C150.358 104.892 149.219 105.706 149.219 106.617ZM168.262 143.629V143.922H169.531C171.419 143.922 172.363 143.727 172.363 143.336L171.973 143.141H171.777C169.434 143.141 168.262 143.303 168.262 143.629ZM164.355 145.094V145.289H166.895C167.546 145.289 167.936 145.126 168.066 144.801C168.001 144.54 167.741 144.41 167.285 144.41H165.82C165.495 144.41 165.007 144.638 164.355 145.094ZM167.773 119.605L168.945 121.363H169.336V120.68V119.898C169.336 119.508 169.238 119.247 169.043 119.117H168.164C168.034 119.117 167.904 119.28 167.773 119.605ZM117.48 138.062H115.43C115.495 139.104 115.625 139.625 115.82 139.625H116.113C116.96 139.625 117.415 139.104 117.48 138.062ZM110.645 103.492L108.789 103.688V103.98L109.082 104.176C111.751 104.176 113.086 104.046 113.086 103.785L112.793 103.492H110.645ZM109.57 141.578L109.668 143.043H109.863C110.319 142.392 110.97 141.904 111.816 141.578V141.285L110.938 141.09H109.961C109.701 141.09 109.57 141.253 109.57 141.578ZM122.363 144.215L121.973 144.508C121.973 145.094 122.591 145.419 123.828 145.484L124.316 145.094V144.703C124.316 144.378 123.665 144.215 122.363 144.215ZM120.898 140.113L118.945 138.453V138.648C118.945 139.951 119.336 140.602 120.117 140.602H120.703C120.833 140.602 120.898 140.439 120.898 140.113ZM136.914 108.277H136.816V108.375C136.816 109.026 137.402 109.612 138.574 110.133V109.059C138.574 108.928 138.021 108.668 136.914 108.277ZM166.309 115.309H166.113V115.504C166.634 117.262 167.122 118.141 167.578 118.141V117.945C167.578 117.034 167.155 116.155 166.309 115.309ZM132.422 102.418H131.836V102.711C133.333 103.036 134.277 103.199 134.668 103.199H134.863V103.004C134.863 102.613 134.049 102.418 132.422 102.418ZM136.621 105.934H136.426V106.324C137.012 107.236 137.533 107.822 137.988 108.082H138.281V107.984C137.956 107.203 137.402 106.52 136.621 105.934ZM123.34 143.336L120.801 143.531V143.922H122.656L124.121 143.727V143.336H123.34ZM146.484 107.789L146.582 107.984H147.168C148.014 107.919 148.438 107.626 148.438 107.105L148.145 107.008C147.168 107.203 146.615 107.464 146.484 107.789ZM171.094 140.211V140.406L171.387 140.699H171.68L172.07 140.211V139.723L171.875 139.332H171.484C171.224 139.527 171.094 139.82 171.094 140.211ZM114.844 142.262L114.062 142.457V142.75L114.844 142.848H115.625L116.211 142.75V142.457L115.625 142.262H114.844ZM173.73 143.531L173.828 143.629H174.219C174.544 143.629 174.772 143.531 174.902 143.336V143.238C174.902 142.717 174.805 142.457 174.609 142.457C174.349 142.457 174.056 142.815 173.73 143.531ZM112.695 101.344L112.988 101.734C114.29 101.604 114.941 101.409 114.941 101.148L114.453 101.051C113.281 101.116 112.695 101.214 112.695 101.344ZM176.953 141.48L176.562 141.773V142.945L176.953 143.336C177.148 143.336 177.246 142.815 177.246 141.773L177.148 141.48H176.953ZM121.582 147.047V147.242L121.875 147.438C122.461 147.177 122.917 146.852 123.242 146.461V146.266C122.656 146.266 122.103 146.526 121.582 147.047ZM142.578 115.211L142.48 115.504C142.611 116.025 142.741 116.285 142.871 116.285H142.969L143.555 115.797V115.504C143.49 115.309 143.164 115.211 142.578 115.211ZM121.875 107.984V108.18H122.266C123.112 108.115 123.535 107.952 123.535 107.691V107.398H122.754C122.168 107.529 121.875 107.724 121.875 107.984ZM142.285 139.332L141.895 139.82L142.188 140.113H142.871L143.262 139.723V139.625L142.969 139.332H142.285ZM156.836 104.957H156.25V105.25C156.25 105.445 156.576 105.543 157.227 105.543H157.617L157.812 105.348C157.747 105.087 157.422 104.957 156.836 104.957ZM120.312 119.508L120.117 119.703V120.289L120.508 120.68H120.703L120.898 120.484V119.996L120.41 119.508H120.312ZM120.312 100.367L120.117 100.66V100.953L120.41 101.246C120.866 101.246 121.094 101.018 121.094 100.562L120.996 100.367H120.312ZM135.254 106.422L135.059 106.617C135.059 107.268 135.352 107.594 135.938 107.594V107.398C135.938 106.943 135.71 106.617 135.254 106.422ZM139.746 113.258H139.551C139.551 113.779 139.811 114.039 140.332 114.039H140.527V113.648C140.462 113.388 140.202 113.258 139.746 113.258ZM140.137 143.531L139.844 143.922V144.117L140.43 144.215L141.016 144.117V143.922L140.723 143.531H140.137ZM125 141.578H124.316V142.164L125 142.262L125.293 141.871L125 141.578ZM110.254 144.801H110.059V145.484L110.254 145.777H110.547V145.094L110.254 144.801ZM167.871 134.547L167.578 134.84V135.23L167.773 135.426H168.066V134.547H167.871ZM120.117 102.223L119.922 102.516V102.711L120.117 102.906H120.312L120.703 102.711L120.508 102.223H120.117ZM168.262 137.184L167.871 137.672V137.77L168.262 138.16L168.555 137.77V137.574L168.262 137.184ZM122.266 105.152L121.875 104.957L121.68 105.348L121.875 105.543H121.973L122.266 105.348V105.152ZM142.676 137.281L142.48 137.574V137.867L142.871 137.965L142.969 137.574L142.871 137.281H142.676ZM117.676 120.289H117.578V120.68L117.871 120.973H117.969V120.484L117.676 120.289ZM116.895 104.664L116.699 104.957V105.152H116.895L117.285 104.859V104.664H116.895ZM120.312 144.02H120.508V143.922C120.443 143.922 120.378 143.954 120.312 144.02Z" fill="#F7DBA7"/>
<path d="M98.348 179.005C103.182 178.575 105.721 178.933 105.965 180.079L106.565 180.55L106.829 181.792L108.124 182.714C107.546 183.436 107.325 184.116 107.46 184.753C107.655 185.044 107.912 185.156 108.23 185.088L108.251 185.183L107.82 185.974L107.056 186.137C106.311 185.763 105.747 185.617 105.365 185.698C102.031 186.608 102.207 189.466 105.893 194.272C109.11 200.31 111.524 203.99 113.137 205.31C118.439 212.701 121.754 216.388 123.082 216.372L123.273 216.331C123.527 216.277 123.927 214.561 124.473 211.183C125.92 206.415 126.937 201.971 127.524 197.852C128.213 195.775 128.483 194.386 128.334 193.686L127.844 192.792C130.392 184.128 129.744 180.306 125.9 181.324L124.795 181.759L124.413 181.841C123.028 176.278 123.036 173.347 124.437 173.049C125.83 172.087 129.742 170.921 136.173 169.551C139.102 168.927 140.797 169.697 141.258 171.862C142.217 172.923 142.73 173.612 142.797 173.931C141.955 174.976 141.649 176.039 141.879 177.122L138.488 178.543C138.415 178.825 137.839 181.277 136.76 185.9C136.599 187.333 135.261 192.144 132.746 200.335L131.855 208.812C129.717 217.521 128.584 221.89 128.456 221.917C128.329 221.944 128.306 222.148 128.387 222.53L128.55 223.295L128.57 223.39C128.774 224.345 128.1 225.088 126.549 225.618L124.883 227.171C124.119 227.334 122.902 227.094 121.234 226.45L115.151 220.857C113.79 218.218 112.791 216.966 112.154 217.102C111.691 216.801 110.81 215.325 109.513 212.672C107.765 210.715 106.141 209.03 104.643 207.619C104.588 207.364 104.686 207.044 104.937 206.657L104.856 206.275L102.398 202.705C100.71 199.47 99.6164 197.773 99.1164 197.613C95.7266 192.011 93.6497 189.292 92.8856 189.455C92.9534 189.773 92.5802 190.052 91.7659 190.292C90.6835 190.523 89.2947 190.253 87.5995 189.482L87.5589 189.291L87.7437 188.753L87.6826 188.466C87.6555 188.339 87.142 188.115 86.142 187.796L86.0058 187.625C87.4025 186.995 88.067 186.521 87.9992 186.202L86.5196 185.818L86.4037 185.743L86.3427 185.457L86.8281 184.455C86.7739 184.2 86.4832 183.929 85.9561 183.642L85.8951 183.355C93.0509 180.7 97.2019 179.25 98.348 179.005ZM95.924 181.219C95.9647 181.41 96.4944 181.397 97.5132 181.18L101.047 180.427L101.007 180.236C99.8291 180.021 98.8265 180.002 97.9987 180.178L96.8526 180.422C96.2795 180.544 95.97 180.81 95.924 181.219ZM91.9293 184.966L91.6083 185.334L91.6897 185.716L92.208 185.805C93.0723 185.488 93.4706 185.17 93.4027 184.852L93.0755 184.722L91.9293 184.966ZM124.279 174.181L124.381 174.659L124.769 175.075L124.865 175.055C124.783 174.673 128.402 173.536 135.72 171.644L135.891 171.508L135.987 171.487L135.926 171.201C135.885 171.01 135.355 171.023 134.336 171.24C130.452 172.067 127.1 173.048 124.279 174.181ZM123.928 176.752L124.05 177.325C124.254 178.28 124.706 178.683 125.406 178.534L125.501 178.514L125.727 178.166L125.707 178.07C124.808 176.664 124.263 175.982 124.072 176.022C123.908 176.19 123.86 176.434 123.928 176.752ZM90.2739 188.913L90.0484 189.26L90.3756 189.39L91.6173 189.126L91.5766 188.935L90.465 188.872L90.2739 188.913ZM126.834 176.333L126.629 176.776L126.956 176.906C127.325 176.761 127.495 176.624 127.468 176.497L127.407 176.21L126.834 176.333ZM137.298 175.302L137.319 175.397L138.717 175.399C139.658 175.132 140.116 174.935 140.088 174.807C140.034 174.553 139.586 174.482 138.745 174.594L137.885 174.777C137.44 174.872 137.244 175.047 137.298 175.302ZM96.6496 190.251L96.363 190.312L96.3285 190.619C96.9058 190.828 97.2194 190.895 97.2695 190.817C97.3833 190.727 97.1767 190.538 96.6496 190.251ZM133.829 184.328L133.972 184.997L134.163 184.956C134.518 184.747 134.807 183.92 135.032 182.474C135.182 182.243 135.608 182.052 136.308 181.903L136.363 181.692L136.22 181.023L135.948 180.682L135.887 180.395L136.324 180.102C136.202 179.529 135.852 179.138 135.275 178.928C134.383 179.118 133.902 180.918 133.829 184.328ZM134.289 187.425L134.098 187.466L134.159 187.752L134.35 187.712L134.289 187.425ZM132.68 187.369L132.761 187.751L133.143 187.669C133.461 187.602 133.637 186.865 133.671 185.46L133.59 185.078L133.494 185.098L133.453 184.907C133.135 184.975 132.877 185.796 132.68 187.369ZM131.74 191.862L131.862 192.435L132.244 192.354C132.758 191.645 132.941 190.941 132.792 190.24L132.711 189.858L132.329 189.94C131.773 190.457 131.577 191.098 131.74 191.862ZM102.364 196.921L102.268 196.942C102.558 197.679 102.831 198.02 103.086 197.966L103.045 197.775C102.846 197.152 102.619 196.867 102.364 196.921ZM131.161 196.179L131.352 196.138C131.803 195.443 132.03 194.63 132.031 193.697L132.01 193.602C131.31 193.751 131.027 194.61 131.161 196.179ZM131.024 197.407L130.723 197.87L130.995 198.211L131.18 197.673L131.119 197.386L131.024 197.407ZM129.991 199.124L130.012 199.22L130.339 199.35C130.657 199.282 130.769 199.025 130.674 198.579L130.613 198.293L130.245 197.972C129.954 198.167 129.869 198.551 129.991 199.124ZM111.131 205.737L110.845 205.799L110.906 206.085C112.262 208.392 113.227 209.485 113.8 209.362L113.76 209.171C112.544 206.901 111.668 205.756 111.131 205.737ZM127.888 217.844L128.175 217.783C128.43 217.729 129.288 214.417 130.752 207.849L130.733 206.355L130.713 206.259L130.522 206.3C129.866 206.972 129.322 208.952 128.891 212.239C128.046 215.148 127.712 217.016 127.888 217.844ZM127.813 207.177L127.526 207.238C126.12 212.197 125.457 214.867 125.538 215.249L125.886 215.475C127.059 212.23 127.687 209.866 127.77 208.384C127.907 208.088 127.935 207.75 127.853 207.368L127.813 207.177ZM119.548 217.125L119.357 217.165L119.377 217.261C119.576 217.884 120.223 218.578 121.318 219.343L121.509 219.303L121.68 219.167C121.172 218.343 120.461 217.662 119.548 217.125ZM116.989 217.769L116.798 217.81L116.859 218.097C116.995 218.733 117.728 219.209 119.06 219.525L119.156 219.504L119.231 219.389L119.211 219.293C118.82 218.711 118.08 218.203 116.989 217.769ZM123.072 218.67L123.113 218.861C123.752 219.99 124.422 220.479 125.123 220.33C125.566 218.971 125.74 218.069 125.645 217.623L125.604 217.432L125.508 217.452C125.344 217.62 124.532 218.026 123.072 218.67ZM127.935 218.533L127.553 218.614L126.06 223.326L126.122 223.612C127.395 223.341 127.933 221.962 127.736 219.474C127.991 219.42 128.057 219.106 127.935 218.533ZM120.717 220.27L120.471 220.522C121.543 221.492 122.461 221.896 123.225 221.733L123.164 221.446C122.424 220.472 121.608 220.08 120.717 220.27ZM120.244 222.268L120.053 222.309L120.073 222.404L120.482 222.916L120.768 222.855L120.707 222.569L120.244 222.268ZM149.862 147.564L153.007 146.395C155.236 145.92 157.231 146.693 158.993 148.714L160.313 151.628C160.443 152.865 160.082 154.606 159.229 156.852C158.577 157.856 157.392 158.541 155.673 158.907C151.661 159.762 149.049 159.686 147.836 158.679C146.61 157.609 145.784 155.921 145.359 153.615C145.105 153.67 144.964 153.633 144.937 153.506L144.896 153.315C146.169 149.915 147.824 147.998 149.862 147.564ZM148.46 150.359L148.48 150.454C150.591 149.739 151.613 149.221 151.545 148.903L151.026 148.814C149.248 149.525 148.392 150.04 148.46 150.359ZM150.674 152.783L150.769 152.763L151.363 152.736L151.554 152.695C152.254 152.546 152.646 152.196 152.728 151.646L152.592 151.476L151.446 151.72C150.936 151.828 150.679 152.183 150.674 152.783ZM157.368 150.458L157.183 150.997L157.264 151.379L157.36 151.359L157.565 150.916L157.463 150.438L157.368 150.458ZM155.747 154.099L155.808 154.385L156.19 154.304C156.635 154.209 156.938 153.911 157.098 153.411L157.037 153.125L156.846 153.166C156.4 153.261 156.034 153.572 155.747 154.099ZM154.012 156.265L153.786 156.613L153.827 156.804L155.546 156.438L155.792 156.186L155.444 155.96L154.012 156.265ZM143.814 167.923L144.101 167.862C144.705 168.199 145.389 168.286 146.153 168.124L147.273 167.286C155.933 165.442 160.317 164.774 160.426 165.283L160.663 165.932L161.009 167.555C161.854 168.707 162.398 169.856 162.642 171.002L162.968 172.53C164.414 183.072 165.695 191.586 166.81 198.071C166.764 198.48 166.78 199.176 166.856 200.158C166.974 200.399 167.287 200.466 167.797 200.357L168.083 200.296C171.522 199.564 173.329 199.611 173.505 200.439L173.451 200.651L173.573 201.224C174.662 202.589 175.56 204.927 176.265 208.239L177.461 211.978L177.215 212.23L173.053 213.316L163.502 215.35C156.37 216.87 152.682 217.056 152.438 215.91C152.289 215.209 151.949 214.55 151.417 213.931C151.513 213.444 151.757 213.026 152.149 212.676L152.435 212.615C152.744 212.816 153.058 212.882 153.376 212.814L153.567 212.774C155.414 212.38 157.577 211.753 160.056 210.892L160.015 210.701C154.458 211.486 151.625 211.623 151.516 211.114L151.258 210.37L151.034 209.319L150.314 206.877C150.179 206.24 152.499 205.413 157.274 204.396C157.911 204.26 157.924 202.76 157.314 199.894L153.109 174.53L152.918 174.571C151.135 174.95 150.217 175.013 150.163 174.758C150.149 174.695 150.224 174.579 150.388 174.411C146.568 175.224 144.562 175.186 144.372 174.294C144.104 174.285 143.923 174.057 143.828 173.611L144.061 172.364C144.007 172.109 143.741 171.799 143.264 171.435C143.665 170.817 143.798 169.724 143.664 168.155L143.814 167.923ZM145.749 169.508L145.831 169.89L146.308 169.788C147.964 169.436 148.764 169.132 148.71 168.877L148.438 168.536L148.151 168.597C146.496 168.949 145.695 169.253 145.749 169.508ZM158.597 166.072L158.371 166.42L158.814 166.625L159.005 166.584L158.944 166.298L158.597 166.072ZM148.135 170.397L146.416 170.764L146.477 171.05C146.531 171.305 147.004 171.337 147.896 171.147L148.946 170.924L149.233 170.863L152.385 170.191C153.34 169.988 153.784 169.727 153.716 169.408L153.696 169.313C153.628 168.995 151.774 169.356 148.135 170.397ZM156.656 168.682L155.776 168.77L155.817 168.961C156.263 168.866 156.872 169.069 157.644 169.57L157.835 169.529C157.963 169.502 158.006 169.393 157.965 169.202L158.156 169.162C158.411 169.107 158.631 169.36 158.817 169.919L159.008 169.879L160.142 168.639L160.02 168.066L157.994 168.397L156.656 168.682ZM157.414 174.112L158.196 175.443L157.894 177.305C158.271 177.824 158.555 178.063 158.746 178.022L158.841 178.002L158.91 177.388L158.788 176.815C158.3 174.523 158.406 173.302 159.106 173.153L159.312 172.71L159.23 172.328L158.883 172.102L158.31 172.224C157.482 172.4 157.183 173.03 157.414 174.112ZM156.386 183.817L158.724 196.199C158.882 196.631 159.025 196.834 159.152 196.807C159.343 196.766 159.41 196.452 159.351 195.866L158.951 194.453C159.201 194.067 159.28 192.719 159.188 190.409L159.066 189.836L158.59 188.539C158.904 188.14 159.047 187.876 159.02 187.749C158.616 187.103 158.34 186.429 158.191 185.729L158.15 185.538C158.405 185.484 157.964 181.85 156.826 174.637C156.527 174.168 156.282 173.954 156.091 173.995C155.136 174.198 155.234 177.472 156.386 183.817ZM159.275 174.415L158.914 174.592L159.036 175.165C159.117 175.547 159.337 175.799 159.696 175.923L159.983 175.862L160.188 175.418L160.086 174.941C159.891 174.65 159.621 174.474 159.275 174.415ZM162.114 190.085L161.636 190.187C161.629 192.651 161.747 194.457 161.991 195.603L162.087 195.583C162.405 195.515 162.541 194.121 162.494 191.402L162.352 190.733L162.114 190.085ZM162.212 199.45L162.354 200.119L162.545 200.078C162.836 199.883 162.914 199.467 162.779 198.83L162.636 198.161L162.35 198.222C162.222 198.25 162.176 198.659 162.212 199.45ZM162.708 200.842L162.503 201.285L162.604 201.763L162.891 201.702L163.212 201.334L163.151 201.047L162.803 200.822L162.708 200.842ZM170.837 201.507L170.571 201.663C171.021 201.9 171.762 201.942 172.794 201.789L172.733 201.502C172.679 201.248 172.238 201.208 171.41 201.385L170.837 201.507ZM172.074 205.437L170.989 205.968C171.279 206.705 171.933 206.965 172.952 206.748L173.239 206.687L173.178 206.4L172.925 206.154C172.912 206.09 173.126 205.845 173.568 205.418L173.466 204.941C173.371 204.495 173.189 204.267 172.921 204.258L172.539 204.339C172.361 204.444 172.206 204.81 172.074 205.437ZM153.648 208.463L153.02 208.797L153.04 208.892C153.658 209.293 155.693 209.159 159.145 208.49L159.814 208.348C160.323 208.239 160.607 208.012 160.667 207.667L160.626 207.476C157.884 207.727 155.558 208.056 153.648 208.463ZM162.87 207.697L163.354 208.093C163.927 207.971 164.146 207.592 164.01 206.955L163.532 207.057C163.15 207.138 162.93 207.351 162.87 207.697ZM172.255 207.695L172.05 208.138L172.091 208.329L172.282 208.288L172.487 207.845L172.446 207.654L172.255 207.695ZM165.023 209.834L163.801 210.194L162.464 210.479L162.546 210.861L163.903 210.672L166.632 209.891L166.571 209.604L166.189 209.686L165.023 209.834ZM175.457 211.007L175.136 211.375L175.197 211.661L175.77 211.539L175.804 211.232L175.648 210.966L175.457 211.007ZM186.614 150.419L187.966 149.732C189.621 149.379 194.569 149.324 202.808 149.566C206.867 150.499 209.183 150.904 209.756 150.782C210.117 149.973 210.181 149.027 209.951 147.945L209.91 147.754L209.768 147.085C209.591 146.257 210.076 145.721 211.222 145.477C211.864 144.741 212.886 144.224 214.287 143.926C216.197 143.519 217.2 143.538 217.295 143.984L220.067 152.779L220.657 155.549C221.145 157.841 221.118 159.278 220.576 159.86C220.125 160.555 219.741 160.936 219.422 161.004C215.789 161.445 213.904 161.347 213.768 160.711C212.997 159.277 211.645 158.4 209.713 158.08C202.949 156.325 198.23 155.733 195.556 156.303L192.841 156.681C189.657 157.359 187.907 158.365 187.592 159.696C187.045 160.878 186.955 162.328 187.321 164.048L187.341 164.143C188.087 167.645 190.519 170.156 194.637 171.675C198.578 172.367 201.886 172.428 204.561 171.858C204.669 172.367 206.251 172.763 209.306 173.044C210.083 173.877 211.426 174.09 213.336 173.683C215.473 174.027 218.822 175.843 223.383 179.131L223.847 179.432L223.928 179.814C223.955 179.941 223.778 180.046 223.396 180.127L223.436 180.318C224.735 182.038 225.418 183.058 225.486 183.376C226.706 189.107 226.549 192.901 225.015 194.759C224.553 196.655 223.162 198.715 220.84 200.94C218.43 204.316 215.665 206.336 212.545 207.001L209.202 207.713C204.009 208.02 201.358 207.919 201.25 207.41C197.887 205.996 195.982 205.337 195.537 205.432C192.105 204.632 189.614 203.565 188.065 202.23L187.683 202.312C187.394 204.703 186.994 205.953 186.485 206.062C182.338 206.279 180.183 206.006 180.02 205.242C179.407 204.241 178.595 201.519 177.581 197.075L177.275 190.949C176.814 188.785 176.838 187.648 177.348 187.539L183.318 185.569C183.764 185.474 184.582 187.13 185.774 190.537L189.486 194.839C189.527 195.03 192.767 196.336 199.208 198.759C200.947 200.052 203.123 200.421 205.734 199.865L209.076 199.153C212.451 198.434 214.513 196.863 215.262 194.44C216.387 192.537 216.975 189.982 217.024 186.776L216.963 186.49C216.57 184.643 214.451 182.665 210.607 180.555C208.867 179.261 206.914 178.845 204.749 179.306C203.354 179.004 200.359 179.01 195.766 179.323L187.291 177.034L182.895 174.676C180.788 172.595 179.562 171.059 179.217 170.067L179.062 168.403L177.907 164.855C177.717 163.963 178.035 162.797 178.86 161.357C178.697 160.593 179.852 158.516 182.325 155.127C184.865 152.988 186.295 151.419 186.614 150.419ZM187.773 151.171L187.854 151.553C187.909 151.808 188.37 151.942 189.239 151.957C190.931 151.463 191.743 151.058 191.675 150.739L191.594 150.357C191.499 149.911 190.56 149.878 188.777 150.258C188.267 150.367 187.933 150.671 187.773 151.171ZM212.661 145.67L212.702 145.861C213.647 146.858 214.374 147.302 214.883 147.194C215.392 147.085 215.707 146.685 215.826 145.994L215.744 145.612C215.663 145.23 214.635 145.249 212.661 145.67ZM216.635 147.919L216.43 148.362L216.757 148.492L217.235 148.39L217.113 147.817L216.635 147.919ZM191.343 154.804C191.652 155.004 191.997 155.064 192.379 154.982C193.016 154.847 193.61 154.354 194.161 153.505L193.602 153.224L192.552 153.448C191.596 153.651 191.193 154.103 191.343 154.804ZM204.312 151.941L204.332 152.037C204.373 152.228 204.782 152.274 205.56 152.175L205.847 152.114L205.826 152.018C205.799 151.891 205.294 151.865 204.312 151.941ZM195.98 155.014L195.68 155.478C195.775 155.923 196.982 155.966 199.301 155.605L199.24 155.318C199.186 155.063 198.163 154.949 196.171 154.973L195.98 155.014ZM183.239 160.823L183.26 160.919L183.471 160.974L183.853 160.892C185.037 159.575 185.561 158.598 185.425 157.961L185.33 157.982L185.139 158.022C184.438 158.172 183.805 159.105 183.239 160.823ZM210.879 153.239L210.728 153.47C211.769 153.981 212.89 154.241 214.09 154.252L214.145 154.041L214.104 153.849C214.036 153.531 213.025 153.314 211.07 153.198L210.879 153.239ZM182.552 159.472L182.286 159.629L182.422 159.799L182.442 159.895L182.804 159.718L182.743 159.431L182.552 159.472ZM206.211 155.231L206.136 155.347L206.177 155.538C208.395 156.264 209.758 156.572 210.268 156.464L210.247 156.368C210.166 155.986 208.821 155.607 206.211 155.231ZM180.101 161.092L179.624 161.194L179.671 161.883L179.732 162.17L179.868 162.34L180.142 161.283L180.101 161.092ZM179.634 163.588L179.368 163.745C179.753 164.927 180.096 165.753 180.395 166.222L180.682 166.161L180.661 166.065L180.017 163.507L179.634 163.588ZM182.396 163.898L182.075 164.266L182.136 164.553L182.423 164.492L182.819 164.008L182.779 163.817L182.396 163.898ZM214.922 159.566L214.581 159.839C215.158 160.048 216.116 160.011 217.453 159.726L219.343 159.224L219.261 158.842C218.088 158.958 216.896 159.146 215.687 159.403L214.922 159.566ZM188.076 170.876L187.906 171.012L187.946 171.203L188.198 171.449L189.154 171.246L189.092 170.959C188.988 170.782 188.649 170.754 188.076 170.876ZM183.744 172.098L183.614 172.426L183.634 172.521L183.866 172.671L184.152 172.61L184.091 172.324L183.744 172.098ZM185.585 172.305L185.49 172.326L185.53 172.517C186.274 173.823 186.869 174.428 187.315 174.333L187.697 174.252L188.073 173.672L188.053 173.577C186.981 172.607 186.158 172.183 185.585 172.305ZM190.361 171.288L190.21 171.52L190.332 172.093L191.028 172.544L191.314 172.483L191.56 172.231L191.458 171.753C191.109 171.362 190.743 171.207 190.361 171.288ZM193.905 172.929L193.755 173.161L193.775 173.257C194.766 173.844 196.15 174.248 197.928 174.469L198.058 174.142C197.976 173.76 196.592 173.355 193.905 172.929ZM199.667 174.198C199.722 174.453 202.124 174.64 206.876 174.759L208.138 174.591L208.425 174.529L208.404 174.434C206.182 173.376 203.675 173.012 200.882 173.34C200.059 173.849 199.654 174.135 199.667 174.198ZM191.535 176.33L191.439 176.35C191.534 176.796 192.022 177.058 192.904 177.136L193.075 177C193.007 176.682 192.494 176.458 191.535 176.33ZM201.403 176.724L201.485 177.106L203.231 177.333L204.281 177.109L204.22 176.823C202.979 176.621 202.04 176.588 201.403 176.724ZM211.908 175.884L211.049 176.067L211.11 176.354C211.573 176.655 213.464 177.25 216.782 178.141C218.3 179.016 219.409 179.379 220.109 179.23L220.205 179.209L220.335 178.882C218.463 177.284 215.655 176.284 211.908 175.884ZM215.537 181.202L215.442 181.222L215.543 181.7C215.679 182.337 216.383 182.985 217.655 183.646L218.228 183.524L218.066 182.76C217.903 181.996 217.06 181.477 215.537 181.202ZM181.437 189.863L180.96 189.965L181.041 190.347L181.273 190.497L181.614 190.225L181.437 189.863ZM179.34 198.298L179.944 200.665L180.039 200.645C180.431 200.295 180.335 198.751 179.752 196.013L179.589 195.249L179.357 195.099L179.166 195.14C178.975 195.18 179.033 196.233 179.34 198.298ZM218.843 188.286L218.366 188.387L218.467 188.865L218.774 188.9L219 188.552L218.843 188.286ZM224.288 187.126L223.686 188.053L223.788 188.531L224.04 188.776L224.326 188.715C224.695 188.57 224.778 188.02 224.574 187.065L224.288 187.126ZM187.156 198.43L186.869 198.491L186.951 198.873C188.164 199.88 189.216 200.288 190.107 200.098L190.298 200.057L190.237 199.771C188.565 198.796 187.538 198.349 187.156 198.43ZM217.498 195.562L217.579 195.944L217.77 195.903C218.262 195.399 218.624 194.756 218.857 193.974L218.605 193.728C218.163 194.155 217.794 194.766 217.498 195.562ZM183.454 202.613L182.976 202.715L183.058 203.097L183.596 203.282L183.958 203.105L183.917 202.914L183.454 202.613ZM222.838 195.323L220.161 198.689L220.201 198.88C220.228 199.007 220.369 199.044 220.624 198.989C221.388 198.827 222.222 197.584 223.125 195.262L222.838 195.323ZM201.022 204.463L198.211 204.862L198.252 205.053C198.306 205.308 199.202 205.45 200.939 205.479L201.402 205.78L201.88 205.678C201.562 204.814 201.276 204.409 201.022 204.463ZM204.458 205.129L204.111 204.903L204.192 205.285L204.479 205.224L204.458 205.129ZM203.823 206.362L203.632 206.403L204.115 206.799L204.879 206.637L204.859 206.541C204.741 206.3 204.396 206.24 203.823 206.362ZM214.902 204.002L214.752 204.234L214.813 204.521L215.045 204.671L215.427 204.59C216.623 204.268 217.194 203.98 217.14 203.726L216.812 203.596L214.902 204.002ZM205.855 206.529C206.855 206.848 208.119 206.845 209.647 206.52L209.838 206.479L213.905 205.413L213.864 205.222C213.564 204.753 211.313 204.967 207.111 205.862C206.219 206.052 205.801 206.274 205.855 206.529ZM234.003 146.017L245.785 143.207C246.804 142.99 249.032 142.982 252.47 143.181C256.909 145.897 259.689 148.167 260.81 149.992C262.522 151.158 264.254 153.818 266.004 157.971C267.24 158.773 268.231 160.925 268.977 164.427L269.581 166.795L271.213 176.332C271.62 178.242 273.3 180.347 276.252 182.647C278.865 184.287 280.49 185.04 281.126 184.904L281.167 185.095C281.33 185.859 280.473 187.306 278.597 189.437C277.294 191.445 276.42 192.496 275.974 192.591L275.879 192.612C274.833 192.701 271.854 191.372 266.942 188.624C260.052 193.154 256.582 195.457 256.532 195.534C254.211 196.828 251.523 197.8 248.466 198.451L247.989 198.552C244.428 198.712 241.214 197.998 238.347 196.413C237.82 196.125 236.558 194.73 234.56 192.227C233.115 191.07 232.176 189.473 231.742 187.435L231.152 184.665C230.772 182.883 230.897 181.125 231.527 179.394C231.799 176.607 232.702 173.818 234.238 171.028C234.999 169.601 235.855 168.62 236.806 168.085C239.738 165.596 242.827 164.006 246.074 163.315L250.352 162.304L250.925 162.182C253.345 161.666 255.139 161.65 256.307 162.134L256.88 162.012C257.198 161.944 257.33 161.782 257.276 161.528C255.938 158.684 254.182 156.063 252.007 153.664C250.104 151.606 247.242 150.984 243.422 151.798L239.384 152.059C236.158 153.479 234.62 154.538 234.769 155.239C233.798 157.243 233.456 159.546 233.744 162.147C233.685 162.492 232.572 162.896 230.407 163.357L229.875 163.67C229.62 163.724 229.417 164.333 229.266 165.497C227.429 165.622 226.456 165.43 226.347 164.921C226.393 164.512 226.128 162.172 225.551 157.901C225.946 154.755 227.789 151.534 231.081 148.236C232.647 146.838 233.621 146.098 234.003 146.017ZM245.046 145.362L244.916 145.689L245.284 146.01L245.857 145.888L245.912 145.676L245.524 145.26L245.046 145.362ZM252.468 144.579L252.277 144.62L252.317 144.811C252.935 145.212 253.435 145.372 253.817 145.29L253.913 145.27L253.872 145.079C253.254 144.678 252.786 144.512 252.468 144.579ZM237.287 148.312L237.348 148.599C237.453 148.776 237.791 148.804 238.365 148.682C238.938 148.56 239.693 148.199 240.63 147.6L240.549 147.218L240.167 147.3C238.766 147.598 237.806 147.935 237.287 148.312ZM229.342 153.2L229.383 153.391L229.478 153.37C230.051 153.248 230.782 152.46 231.671 151.006L231.61 150.72L231.514 150.74C230.877 150.876 230.153 151.696 229.342 153.2ZM242.476 149.703L242.08 150.187L242.468 150.603L243.71 150.339L243.935 149.991L243.24 149.54L242.476 149.703ZM230.084 160.43L229.838 160.683L230.143 162.115L230.238 162.095C230.48 161.977 230.559 161.727 230.478 161.345L230.315 160.581L230.084 160.43ZM266.383 160.686L266.287 160.707L266.328 160.898C266.564 161.38 266.745 161.608 266.873 161.58L266.866 161.083C266.671 160.791 266.51 160.659 266.383 160.686ZM264.898 164.497L264.652 164.749L264.713 165.036C265.171 165.937 265.528 166.36 265.782 166.306L265.973 166.265C265.797 165.437 265.47 164.841 264.993 164.477L264.898 164.497ZM237.034 171.031L236.086 171.733L236.187 172.21L236.378 172.17C236.824 172.075 237.088 171.752 237.171 171.202L237.13 171.011L237.034 171.031ZM237.917 180.329C239.176 184.055 240.124 185.85 240.761 185.714L241.981 186.752L242.001 186.848L241.121 186.935L241.182 187.222C242.745 188.62 245.553 189.619 249.609 190.22C250.109 190.379 250.786 190.435 251.641 190.386C252.787 190.142 256.781 187.327 263.622 181.943C264.063 181.516 264.243 181.111 264.162 180.729L264.06 180.252C262.931 177.763 261.802 174.809 260.674 171.388L260.463 171.333C260.314 170.632 259.491 170.209 257.995 170.061C252.999 169.728 249.641 169.744 247.921 170.11C243.313 172.224 240.347 174.553 239.025 177.097C238.123 178.488 237.754 179.565 237.917 180.329ZM265.344 167.997L265.017 167.867L265.078 168.153L265.364 168.092L265.344 167.997ZM266.112 169.73L265.539 169.852L265.621 170.234L265.968 170.46L266.194 170.112L266.112 169.73ZM263.565 172.769L263.339 173.117L263.707 173.438L264.069 173.261L264.008 172.974L263.66 172.749L263.565 172.769ZM267.064 172.323L266.778 172.384L266.798 172.48C267.441 174.872 267.953 176.028 268.335 175.946L268.485 175.715L268.445 175.524C268.16 174.187 267.7 173.12 267.064 172.323ZM263.99 176.173L263.915 176.289L264.037 176.862L264.405 177.183L264.5 177.163L264.801 176.699L264.679 176.126L264.372 176.092L263.99 176.173ZM274.021 183.422L273.735 183.483L273.857 184.056C274.288 184.83 274.662 185.182 274.981 185.115L275.267 185.054L275.206 184.767C274.735 183.803 274.34 183.354 274.021 183.422ZM238.933 191.195L238.783 191.427L238.803 191.523L239.035 191.673L239.513 191.571L239.472 191.38L239.124 191.155L238.933 191.195ZM271.386 185.581L271.16 185.928C271.446 186.334 271.762 186.566 272.107 186.625L272.203 186.605L272.504 186.142L272.463 185.951L271.863 185.479L271.386 185.581ZM257.821 189.868L257.862 190.059L258.244 189.978C259.135 189.788 260.232 189.155 261.534 188.079L261.513 187.983L261.131 188.065C259.021 188.781 257.917 189.382 257.821 189.868ZM273.833 186.757L273.723 187.18L273.764 187.371L274.227 187.671L274.609 187.59L274.855 187.338L274.815 187.147L274.215 186.676L273.833 186.757ZM250.404 192.546L250.178 192.894C250.373 193.185 250.662 193.29 251.044 193.209C251.717 192.932 252.034 192.698 251.993 192.507L251.973 192.412L251.646 192.282L250.404 192.546ZM240.278 196.101L240.073 196.544C240.449 197.063 242.197 197.456 245.316 197.724C246.366 197.966 247.687 197.918 249.279 197.579L249.259 197.483C249.218 197.292 247.934 197.2 245.405 197.206C243.923 197.122 242.309 196.733 240.564 196.04L240.278 196.101ZM310.622 137.284C313.106 136.755 315.58 138.059 318.045 141.195C318.364 141.127 318.898 141.446 319.647 142.152L322.394 148.955C322.111 149.814 320.505 150.556 317.576 151.18L316.621 151.383C314.184 151.503 312.836 150.958 312.578 149.748C312.388 148.857 311.392 147.771 309.588 146.491C309.329 146.213 307.926 146.346 305.379 146.888C302.96 147.404 300.166 148.664 296.999 150.67C295.122 153.733 293.95 156.046 293.485 157.609C296.25 168.403 297.86 175.182 298.316 177.947C298.438 178.521 298.881 178.726 299.645 178.563L301.938 178.075C302.97 177.921 303.52 178.004 303.588 178.322L303.608 178.418L304.255 179.578L305.203 184.968L304.793 185.854L300.405 187.287L300.023 187.369L298.235 188.349C290.858 189.654 287.136 190.147 287.068 189.829C285.794 190.1 285.036 189.663 284.791 188.517C284.42 187.397 284.105 186.233 283.848 185.023C283.59 183.813 284.662 182.753 287.064 181.842C286.956 181.333 287.761 180.895 289.48 180.529L289.746 180.372L289.706 180.181L283.558 154.132C283.219 152.54 282.636 151.833 281.808 152.009L281.235 152.131C280.471 152.294 279.272 152.915 277.638 153.995L277.406 153.845L277.366 153.654C277.338 153.527 277.559 153.313 278.028 153.014L277.987 152.823C277.351 152.958 276.652 151.243 275.893 147.677C275.765 147.705 275.548 147.152 275.24 146.019C277.367 143.503 279.831 141.946 282.633 141.349L285.02 140.841C285.975 140.637 287.667 140.61 290.095 140.758L290.156 141.045C289.773 142.058 289.622 142.756 289.703 143.138L289.846 143.807C294.515 140.416 301.441 138.242 310.622 137.284ZM288.67 157.037L288.772 157.515C289.226 158.084 289.527 158.719 289.677 159.419C289.667 159.687 289.85 161.013 290.224 163.396L291.229 167.176L291.324 167.156C291.516 167.115 291.14 164.1 290.197 158.11C290.324 158.083 290.252 157.433 289.981 156.159C289.795 155.6 289.575 155.347 289.32 155.401L289.129 155.442C288.687 155.869 288.534 156.401 288.67 157.037ZM289.083 187.103L287.862 187.463L287.903 187.654C287.971 187.972 288.928 187.935 290.774 187.542L293.64 186.931L294.288 186.693C294.22 186.375 292.485 186.512 289.083 187.103ZM297.266 144.423L297.306 144.614C297.88 144.492 298.447 143.406 299.009 141.356L298.907 140.878L298.812 140.899C297.264 141.761 296.749 142.935 297.266 144.423ZM310.238 144.855L310.716 144.753C311.02 144.622 311.463 143.729 312.042 142.074L312.022 141.979C311.995 141.851 311.854 141.815 311.599 141.869C310.625 142.609 310.226 143.393 310.403 144.221C310.339 144.234 310.284 144.446 310.238 144.855ZM288.738 151.731L288.356 151.812L288.306 153.92C288.373 154.238 288.632 154.516 289.082 154.753L289.178 154.733C289.369 154.692 289.433 154.212 289.37 153.294L288.738 151.731ZM300.448 141.548L301.332 143.357L302.096 143.194L301.669 141.188L301.321 140.963L301.035 141.024C300.603 141.183 300.407 141.357 300.448 141.548ZM288.089 185.717L287.939 185.949L288.075 186.12L293.328 185.001L293.267 184.714L290 185.31L288.089 185.717ZM277.886 146.254C278.504 146.655 279.1 146.795 279.673 146.673L279.727 146.461L279.585 145.793L279.101 145.396C278.237 145.714 277.832 146 277.886 146.254ZM296.159 184.697L296.507 184.923L297.94 184.618L298.24 184.154C298.213 184.027 298.027 183.933 297.681 183.874C296.626 184.232 296.119 184.506 296.159 184.697ZM315.59 140.919L315.304 140.98L315.344 141.171C315.962 141.572 316.462 141.732 316.844 141.65L317.131 141.589L317.09 141.398C316.472 140.997 315.972 140.838 315.59 140.919ZM281.873 143.408L281.586 143.469L281.668 143.851L282.383 144.398L283.243 144.215L283.202 144.024L281.873 143.408ZM280.208 149.654L280.249 149.845L280.535 149.784C281.236 149.635 281.59 149.426 281.6 149.158L281.348 148.912L281.157 148.953C280.584 149.075 280.267 149.308 280.208 149.654ZM303.703 139.956L302.577 140.296L302.598 140.392L302.85 140.637L303.805 140.434C304.251 140.339 304.478 140.157 304.488 139.889L304.276 139.834L303.703 139.956ZM295.163 173.926L294.842 174.294L295.005 175.058L295.387 174.977L295.708 174.609L295.586 174.036L295.354 173.886L295.163 173.926ZM285.919 186.779L285.456 186.478L285.346 186.901L285.427 187.283L285.679 187.529L286.061 187.447L285.919 186.779ZM291.601 147.826L291.239 148.003L291.3 148.29L291.743 148.495L292.029 148.434L292.255 148.086L292.194 147.8L291.601 147.826ZM305.593 139.454L305.634 139.645L306.302 139.503L306.623 139.135L306.276 138.909C305.793 139.145 305.566 139.327 305.593 139.454ZM311.897 138.111L311.747 138.343L311.767 138.438L312.019 138.684L312.401 138.603L312.531 138.276L312.511 138.18L312.279 138.03L311.897 138.111ZM288.484 142.1L288.047 142.393L288.128 142.775L288.606 142.673L288.811 142.23L288.484 142.1ZM288.563 143.88L288.242 144.248L288.283 144.439L288.515 144.59L288.911 144.106L288.85 143.819L288.563 143.88ZM313.462 146.864L313.502 147.055L313.693 147.014L314.014 146.646L313.953 146.36L313.858 146.38C313.58 146.639 313.448 146.8 313.462 146.864ZM308.424 139.151L308.103 139.518L308.123 139.614L308.601 139.512L308.751 139.281L308.71 139.09L308.424 139.151ZM295.611 176.028L295.42 176.068L295.501 176.45L295.692 176.41L295.611 176.028ZM321.502 131.173L321.652 130.941C323.171 130.884 324.726 130.686 326.318 130.347L334.15 128.678L334.498 128.904C334.36 130.131 334.359 131.063 334.495 131.7L334.84 133.324C335.475 135.053 336.174 135.836 336.938 135.673C337.171 134.891 338.302 133.951 340.332 132.853C345.015 129.526 348.98 127.516 352.227 126.825C354.392 126.364 356.92 126.824 359.81 128.205C361.806 128.512 363.908 129.629 366.115 131.555C369.607 135.138 371.95 139.731 373.144 145.334L373.307 146.098L374.103 153.118L375.83 157.942L375.831 162.635L375.871 162.826L376.034 163.59L379.704 163.008L381.328 162.662C382.41 162.431 383.068 162.391 383.299 162.541C384.035 167.244 384.052 169.67 383.352 169.819C382.241 170.854 380.953 171.528 379.489 171.84L377.483 172.267C374.427 172.918 371.299 174.017 368.101 175.564C365.804 175.72 364.453 174.843 364.046 172.933L363.218 169.515C362.77 167.413 362.986 165.77 363.865 164.584C363.773 161.342 363.838 158.366 364.06 155.656L362.822 147.034C363.013 146.993 362.96 146.272 362.661 144.871C362.295 143.152 360.404 140.992 356.988 138.392C354.696 137.948 353.392 137.76 353.073 137.827C349.38 138.614 346.401 140.879 344.137 144.623C343.882 144.678 342.654 146.57 340.454 150.301C339.711 151.191 339.72 153.419 340.479 156.985C341.977 163.389 342.885 166.557 343.203 166.489C345.845 166.392 347.22 166.599 347.329 167.108L347.41 167.49L345.288 167.842L343.78 168.263L343.862 168.645C343.916 168.9 345.194 168.961 347.695 168.827C348.235 169.178 348.614 169.863 348.831 170.882L348.872 171.073C349.198 172.601 349.225 174.293 348.954 176.147L337.895 178.603C336.813 178.834 335.902 178.462 335.162 177.488C334.649 176.332 333.861 174.037 332.796 170.603C332.729 170.285 333.609 169.731 335.438 168.942L335.773 168.172L335.753 168.076C335.671 167.694 335.301 167.207 334.643 166.615L334.012 163.654L332.853 158.21L331.363 149.341C330.088 143.356 329.196 140.417 328.686 140.526L328.209 140.628L323.842 142.157C323.396 142.252 322.71 141.999 321.783 141.397L321.701 141.015C321.911 140.438 321.955 139.863 321.833 139.29L320.889 135.796L321.502 131.173ZM330.178 131.122L322.61 134.032L322.651 134.223C322.692 134.414 323.196 134.44 324.165 134.3C328.304 133.418 330.312 132.691 330.19 132.118L330.45 131.463L330.41 131.272L330.219 131.313L330.178 131.122ZM349.572 128.888L349.592 128.984C350.038 128.889 350.883 129.108 352.128 129.642L353.24 129.704L356.276 128.958L356.331 128.746L356.311 128.651C356.166 128.282 355.775 128.166 355.138 128.302L354.756 128.383L353.841 128.777C352.264 128.248 351.157 128.051 350.521 128.187C349.947 128.309 349.631 128.543 349.572 128.888ZM343.443 131.991L343.463 132.086L343.715 132.332C346.545 130.931 347.92 130.039 347.838 129.657L347.647 129.697C346.246 129.996 344.845 130.76 343.443 131.991ZM325.029 136.013L325.377 136.238L325.568 136.198C326.382 135.958 326.755 135.679 326.687 135.36L326.189 135.366C325.362 135.543 324.975 135.758 325.029 136.013ZM326.296 137.74L326.336 137.931L328.131 137.449L328.417 137.388C329.054 137.252 329.47 137.33 329.665 137.621L329.726 137.908C329.476 138.294 329.384 138.646 329.452 138.965C329.825 139.152 330.234 139.198 330.68 139.103C330.871 139.062 330.939 138.914 330.885 138.66L330.309 135.487L330.152 135.221L329.866 135.282C329.538 135.618 328.373 136.399 326.371 137.624L326.296 137.74ZM341.927 133.312L342.043 133.387L342.063 133.483C342.596 133.17 342.848 132.95 342.821 132.822L342.781 132.631L342.589 132.672C342.107 132.908 341.886 133.121 341.927 133.312ZM322.654 137.517L322.674 137.613C322.715 137.804 322.908 137.929 323.253 137.989C323.763 137.88 324.275 137.472 324.79 136.763L324.769 136.667L323.241 136.993C322.809 137.152 322.613 137.326 322.654 137.517ZM355.931 132.027C355.986 132.281 356.599 132.35 357.773 132.233C357.987 131.988 358.06 131.706 357.992 131.388C357.924 131.07 357.361 130.923 356.301 130.949C355.973 131.285 355.85 131.645 355.931 132.027ZM336.8 136.9L336.882 137.282C337.773 137.093 338.606 136.316 339.381 134.953L339.361 134.857L339.245 134.782L339.149 134.803C338.385 134.965 337.602 135.665 336.8 136.9ZM359.439 130.68L359.234 131.123C359.429 131.415 359.717 131.52 360.1 131.438L360.577 131.337L360.973 130.853L360.953 130.757C360.835 130.516 360.489 130.457 359.916 130.579L359.439 130.68ZM349.04 133.894L349.081 134.085L349.559 133.983C350.487 133.652 350.923 133.36 350.869 133.105L350.829 132.914L350.16 133.056C349.346 133.296 348.972 133.575 349.04 133.894ZM333.274 136.753L332.797 136.855L332.728 137.468L333.094 139.188C333.257 139.952 333.238 140.488 333.038 140.797L333.139 141.275L333.806 142.531L333.969 143.295C334.077 143.804 334.311 144.12 334.67 144.244C334.734 144.23 334.769 143.457 334.775 141.925C335.518 141.034 335.848 140.398 335.767 140.016C335.699 139.698 335.199 139.072 334.268 138.139C333.86 137.161 333.529 136.699 333.274 136.753ZM324.049 140.316L324.089 140.507L325.044 140.303L325.345 139.84L325.325 139.744L324.806 139.655C324.274 139.968 324.021 140.188 324.049 140.316ZM358.303 133.319L357.669 133.154L357.519 133.386L357.539 133.481L358.078 133.666L358.173 133.646L358.303 133.319ZM351.091 135.554L351.323 135.704L351.419 135.684C352.819 135.385 353.493 135.109 353.438 134.854L352.634 134.826C351.578 135.184 351.064 135.426 351.091 135.554ZM338.035 142.229L338.096 142.515C339.711 141.972 341.712 140.114 344.098 136.943L344.078 136.848L343.505 136.97C343.25 137.024 342.581 137.633 341.498 138.795C338.999 140.193 337.845 141.337 338.035 142.229ZM360.07 133.641L359.974 133.662L360.035 133.948C360.076 134.139 360.68 134.943 361.846 136.358C361.955 136.868 362.137 137.095 362.391 137.041L362.692 136.577L362.611 136.195C362.393 135.177 361.547 134.325 360.07 133.641ZM330.609 141.115L330.861 141.361L331.052 141.32L331.074 140.017L330.788 140.078C330.597 140.119 330.537 140.464 330.609 141.115ZM354.821 136.656L354.882 136.943L357.27 136.434L357.591 136.066L357.509 135.684L356.971 135.5L356.493 135.601C355.324 136.05 354.767 136.402 354.821 136.656ZM345.69 140.199C347.037 139.646 347.663 139.146 347.568 138.701L347.241 138.571L346.954 138.632C345.999 138.835 345.578 139.357 345.69 140.199ZM342.878 141.996L342.919 142.187L343.205 142.126C344.048 141.081 344.408 140.272 344.286 139.699L344.095 139.74L344.054 139.549C343.545 139.657 343.153 140.473 342.878 141.996ZM335.32 142.607L335.633 143.14C335.742 143.649 335.564 144.22 335.099 144.851C335.485 145.102 335.712 145.386 335.78 145.705C336.458 148.888 337.02 150.433 337.466 150.338L337.562 150.317C337.827 149.063 337.763 147.512 337.369 145.666C336.804 143.323 336.253 142.142 335.716 142.124L335.525 142.164C335.334 142.205 335.266 142.353 335.32 142.607ZM362.519 138.112L362.581 138.398C363.955 141.101 364.751 142.496 364.969 142.582L365.018 141.873L364.835 141.013C363.928 138.943 363.156 137.976 362.519 138.112ZM366.858 137.387L366.763 137.408C367.609 140.755 368.287 142.375 368.796 142.266L368.987 142.226C367.95 138.919 367.24 137.306 366.858 137.387ZM341.874 142.909L341.464 143.795L341.505 143.986L341.641 144.157L342.119 144.055L342.161 142.848L341.874 142.909ZM339.404 144.434L339.253 144.665L339.505 144.911L339.887 144.83L339.826 144.543L339.595 144.393L339.404 144.434ZM368.835 149.947L368.855 150.042L369.386 151.127L369.863 151.025C369.623 150.211 369.28 149.852 368.835 149.947ZM366.67 157.597L366.786 157.672L366.881 157.651C367.072 157.611 367.1 157.272 366.964 156.635L366.72 155.489C366.465 155.543 366.449 156.246 366.67 157.597ZM366.422 159.247C366.899 159.611 367.219 160.175 367.382 160.94L367.573 160.899L367.615 159.692L367.269 158.068C366.569 158.217 366.287 158.61 366.422 159.247ZM370.442 157.492L370.251 157.533L370.352 158.01L370.544 157.97L370.442 157.492ZM372.74 157.502L372.956 159.453L373.465 161.84L373.56 161.82C374.171 160.625 374.382 159.582 374.192 158.69L374.171 158.595C373.981 157.703 373.504 157.339 372.74 157.502ZM371.193 162.424L371.234 162.615L371.329 162.595L371.487 161.463L371.447 161.272L371.256 161.313C371.065 161.353 371.044 161.724 371.193 162.424ZM334.406 170.659L334.296 171.082L334.317 171.178C334.688 172.297 335.224 172.782 335.925 172.633L336.498 172.51L336.723 172.163L336.682 171.972C335.96 171.393 335.552 170.881 335.457 170.436L334.406 170.659ZM371.846 164.082L371.464 164.164L371.545 164.546L372.008 164.847L372.254 164.595L372.214 164.404L371.846 164.082ZM377.471 165.181L377.532 165.467C380.398 164.857 381.783 164.329 381.688 163.883L381.647 163.692L380.31 163.977C378.35 164.461 377.403 164.862 377.471 165.181ZM339.374 174.294C339.442 174.613 340.303 174.595 341.959 174.243C345.143 173.565 346.701 173.066 346.633 172.748C346.551 172.366 345.428 172.405 343.263 172.867C340.844 173.382 339.547 173.858 339.374 174.294ZM365.319 169.067L365.032 169.128L365.155 169.701L365.502 169.927L365.789 169.866L365.823 169.559L365.803 169.463L365.319 169.067ZM378.758 167.003L378.819 167.29C379.014 167.581 379.335 167.679 379.78 167.584C380.799 167.367 381.357 167.016 381.453 166.529L381.392 166.243C381.183 165.888 380.792 165.771 380.219 165.893L379.742 165.995C379.105 166.131 378.777 166.467 378.758 167.003ZM367.949 171.103C368.249 171.572 368.621 171.759 369.067 171.664C372.492 170.868 374.164 170.278 374.082 169.896C373.515 169.418 372.658 169.301 371.512 169.545C369.042 170.138 367.854 170.657 367.949 171.103ZM365.948 173.426L365.647 173.89L365.688 174.081C365.783 174.527 366.69 174.566 368.409 174.2L368.887 174.098L369.61 173.745L369.59 173.649C368.818 173.148 367.731 173.047 366.33 173.345L365.948 173.426ZM387.97 113.22L399.753 110.411C400.772 110.194 403 110.185 406.437 110.385C410.876 113.101 413.656 115.371 414.777 117.196C416.49 118.362 418.222 121.022 419.972 125.175C421.208 125.977 422.198 128.129 422.944 131.631L423.549 133.999L425.181 143.536C425.588 145.446 427.267 147.551 430.22 149.851C432.833 151.491 434.457 152.244 435.094 152.108L435.135 152.299C435.298 153.063 434.441 154.51 432.565 156.64C431.262 158.649 430.388 159.7 429.942 159.795L429.846 159.816C428.801 159.905 425.822 158.576 420.91 155.828C414.02 160.358 410.55 162.661 410.5 162.738C408.179 164.031 405.491 165.004 402.434 165.655L401.957 165.756C398.396 165.916 395.182 165.202 392.315 163.616C391.788 163.329 390.525 161.934 388.528 159.431C387.083 158.274 386.144 156.677 385.71 154.639L385.12 151.869C384.74 150.086 384.865 148.329 385.495 146.598C385.766 143.81 386.67 141.022 388.206 138.232C388.967 136.805 389.823 135.824 390.774 135.289C393.705 132.8 396.795 131.21 400.042 130.519L404.32 129.508L404.893 129.386C407.313 128.87 409.107 128.854 410.275 129.338L410.848 129.216C411.166 129.148 411.298 128.986 411.244 128.732C409.906 125.888 408.149 123.267 405.974 120.868C404.072 118.81 401.21 118.188 397.389 119.002L393.351 119.263C390.126 120.683 388.587 121.742 388.737 122.443C387.766 124.447 387.424 126.75 387.712 129.351C387.652 129.696 386.54 130.1 384.375 130.561L383.843 130.874C383.588 130.928 383.385 131.537 383.233 132.701C381.396 132.826 380.423 132.634 380.315 132.125C380.361 131.715 380.096 129.376 379.519 125.105C379.914 121.959 381.757 118.738 385.048 115.44C386.614 114.042 387.588 113.302 387.97 113.22ZM399.014 112.566L398.884 112.893L399.252 113.214L399.825 113.092L399.88 112.88L399.491 112.464L399.014 112.566ZM406.436 111.783L406.245 111.824L406.285 112.015C406.903 112.416 407.403 112.576 407.785 112.494L407.881 112.474L407.84 112.283C407.222 111.882 406.754 111.716 406.436 111.783ZM391.255 115.516L391.316 115.803C391.421 115.98 391.759 116.008 392.332 115.886C392.905 115.764 393.661 115.403 394.598 114.804L394.517 114.422L394.135 114.503C392.734 114.802 391.774 115.139 391.255 115.516ZM383.31 120.404L383.351 120.595L383.446 120.574C384.019 120.452 384.75 119.664 385.638 118.21L385.577 117.924L385.482 117.944C384.845 118.08 384.121 118.9 383.31 120.404ZM396.444 116.907L396.048 117.391L396.436 117.807L397.678 117.543L397.903 117.195L397.208 116.744L396.444 116.907ZM384.051 127.634L383.806 127.886L384.111 129.319L384.206 129.299C384.447 129.181 384.527 128.931 384.446 128.549L384.283 127.785L384.051 127.634ZM420.35 127.89L420.255 127.911L420.296 128.102C420.531 128.584 420.713 128.812 420.84 128.784L420.834 128.286C420.639 127.995 420.478 127.863 420.35 127.89ZM418.866 131.701L418.62 131.953L418.681 132.24C419.139 133.141 419.495 133.564 419.75 133.51L419.941 133.469C419.765 132.641 419.438 132.045 418.961 131.681L418.866 131.701ZM391.002 138.235L390.053 138.937L390.155 139.414L390.346 139.374C390.792 139.279 391.056 138.956 391.138 138.406L391.098 138.215L391.002 138.235ZM391.884 147.533C393.144 151.259 394.092 153.054 394.729 152.918L395.948 153.956L395.969 154.052L395.089 154.139L395.15 154.426C396.712 155.824 399.521 156.823 403.576 157.423C404.076 157.583 404.754 157.639 405.609 157.59C406.755 157.346 410.748 154.531 417.589 149.147C418.031 148.72 418.211 148.315 418.13 147.933L418.028 147.456C416.899 144.967 415.77 142.012 414.642 138.592L414.431 138.537C414.281 137.836 413.459 137.413 411.963 137.265C406.966 136.932 403.608 136.948 401.889 137.314C397.28 139.428 394.315 141.757 392.993 144.301C392.091 145.692 391.722 146.769 391.884 147.533ZM419.311 135.201L418.984 135.071L419.045 135.357L419.332 135.296L419.311 135.201ZM420.08 136.934L419.507 137.056L419.588 137.438L419.936 137.664L420.161 137.316L420.08 136.934ZM417.532 139.973L417.307 140.321L417.675 140.642L418.036 140.465L417.975 140.178L417.628 139.953L417.532 139.973ZM421.032 139.527L420.745 139.588L420.766 139.684C421.408 142.076 421.921 143.232 422.303 143.15L422.453 142.919L422.412 142.728C422.128 141.39 421.667 140.324 421.032 139.527ZM417.958 143.377L417.883 143.493L418.005 144.066L418.373 144.387L418.468 144.367L418.769 143.903L418.647 143.33L418.34 143.296L417.958 143.377ZM427.989 150.626L427.702 150.687L427.824 151.26C428.255 152.034 428.63 152.386 428.949 152.319L429.235 152.258L429.174 151.971C428.702 151.006 428.307 150.558 427.989 150.626ZM392.901 158.399L392.751 158.631L392.771 158.727L393.003 158.877L393.48 158.775L393.44 158.584L393.092 158.359L392.901 158.399ZM425.353 152.785L425.128 153.132C425.414 153.537 425.73 153.77 426.075 153.829L426.171 153.809L426.471 153.345L426.431 153.154L425.831 152.683L425.353 152.785ZM411.789 157.072L411.83 157.263L412.212 157.182C413.103 156.992 414.2 156.359 415.501 155.283L415.481 155.187L415.099 155.269C412.988 155.984 411.885 156.586 411.789 157.072ZM427.801 153.961L427.691 154.384L427.732 154.575L428.195 154.875L428.577 154.794L428.823 154.542L428.782 154.351L428.183 153.88L427.801 153.961ZM404.372 159.75L404.146 160.098C404.341 160.389 404.63 160.494 405.012 160.413C405.685 160.136 406.002 159.902 405.961 159.711L405.94 159.616L405.613 159.486L404.372 159.75ZM394.245 163.305L394.04 163.748C394.417 164.267 396.165 164.66 399.284 164.928C400.334 165.17 401.655 165.122 403.247 164.783L403.226 164.687C403.186 164.496 401.901 164.403 399.373 164.409C397.891 164.326 396.277 163.937 394.532 163.244L394.245 163.305Z" fill="#F7DBA7"/>
<path d="M283.031 27.75H178.969C174.499 27.75 170.875 31.3737 170.875 35.8438V112.156C170.875 116.626 174.499 120.25 178.969 120.25H283.031C287.501 120.25 291.125 116.626 291.125 112.156V35.8438C291.125 31.3737 287.501 27.75 283.031 27.75Z" stroke="#F7DBA7" stroke-width="6" stroke-linejoin="round"/>
<path d="M283.031 97.125H276.094C271.624 97.125 268 100.749 268 105.219V112.156C268 116.626 271.624 120.25 276.094 120.25H283.031C287.501 120.25 291.125 116.626 291.125 112.156V105.219C291.125 100.749 287.501 97.125 283.031 97.125Z" stroke="#F7DBA7" stroke-width="6" stroke-linejoin="round"/>
<path d="M283.031 74H276.094C271.624 74 268 77.6237 268 82.0938V89.0312C268 93.5013 271.624 97.125 276.094 97.125H283.031C287.501 97.125 291.125 93.5013 291.125 89.0312V82.0938C291.125 77.6237 287.501 74 283.031 74Z" stroke="#F7DBA7" stroke-width="6" stroke-linejoin="round"/>
<path d="M283.031 50.875H276.094C271.624 50.875 268 54.4987 268 58.9688V65.9062C268 70.3763 271.624 74 276.094 74H283.031C287.501 74 291.125 70.3763 291.125 65.9062V58.9688C291.125 54.4987 287.501 50.875 283.031 50.875Z" stroke="#F7DBA7" stroke-width="6" stroke-linejoin="round"/>
<path d="M283.031 27.75H276.094C271.624 27.75 268 31.3737 268 35.8438V42.7812C268 47.2513 271.624 50.875 276.094 50.875H283.031C287.501 50.875 291.125 47.2513 291.125 42.7812V35.8438C291.125 31.3737 287.501 27.75 283.031 27.75Z" stroke="#F7DBA7" stroke-width="6" stroke-linejoin="round"/>
<path d="M185.906 97.125H178.969C174.499 97.125 170.875 100.749 170.875 105.219V112.156C170.875 116.626 174.499 120.25 178.969 120.25H185.906C190.376 120.25 194 116.626 194 112.156V105.219C194 100.749 190.376 97.125 185.906 97.125Z" stroke="#F7DBA7" stroke-width="6" stroke-linejoin="round"/>
<path d="M185.906 74H178.969C174.499 74 170.875 77.6237 170.875 82.0938V89.0312C170.875 93.5013 174.499 97.125 178.969 97.125H185.906C190.376 97.125 194 93.5013 194 89.0312V82.0938C194 77.6237 190.376 74 185.906 74Z" stroke="#F7DBA7" stroke-width="6" stroke-linejoin="round"/>
<path d="M185.906 50.875H178.969C174.499 50.875 170.875 54.4987 170.875 58.9688V65.9062C170.875 70.3763 174.499 74 178.969 74H185.906C190.376 74 194 70.3763 194 65.9062V58.9688C194 54.4987 190.376 50.875 185.906 50.875Z" stroke="#F7DBA7" stroke-width="6" stroke-linejoin="round"/>
<path d="M185.906 27.75H178.969C174.499 27.75 170.875 31.3737 170.875 35.8438V42.7812C170.875 47.2513 174.499 50.875 178.969 50.875H185.906C190.376 50.875 194 47.2513 194 42.7812V35.8438C194 31.3737 190.376 27.75 185.906 27.75Z" stroke="#F7DBA7" stroke-width="6" stroke-linejoin="round"/>
<path d="M259.906 27.75H202.094C197.624 27.75 194 31.3737 194 35.8438V65.9062C194 70.3763 197.624 74 202.094 74H259.906C264.376 74 268 70.3763 268 65.9062V35.8438C268 31.3737 264.376 27.75 259.906 27.75Z" stroke="#F7DBA7" stroke-width="6" stroke-linejoin="round"/>
<path d="M259.906 74H202.094C197.624 74 194 77.6237 194 82.0938V112.156C194 116.626 197.624 120.25 202.094 120.25H259.906C264.376 120.25 268 116.626 268 112.156V82.0938C268 77.6237 264.376 74 259.906 74Z" stroke="#F7DBA7" stroke-width="6" stroke-linejoin="round"/>
</svg>
