<svg width="36" height="36" viewBox="0 0 36 36" fill="none" xmlns="http://www.w3.org/2000/svg">
<path d="M13.9732 8.76374L22.0268 3.61124C22.3472 3.45121 22.7011 3.36996 23.0592 3.37425C23.4172 3.37853 23.7691 3.46821 24.0855 3.63585L32.0266 8.96413C32.2073 9.05984 32.3585 9.20297 32.4639 9.37814C32.5693 9.55331 32.625 9.7539 32.625 9.95835V30.7568C32.625 30.9508 32.5749 31.1415 32.4794 31.3104C32.3839 31.4793 32.2464 31.6207 32.0802 31.7207C31.914 31.8208 31.7247 31.8762 31.5308 31.8815C31.3368 31.8868 31.1448 31.8418 30.9734 31.751L24.0954 27.2658C23.7764 27.0968 23.4214 27.007 23.0603 27.004C22.6993 27.0011 22.3429 27.0851 22.0212 27.2489L14.156 32.3817C13.8371 32.5442 13.484 32.6283 13.1261 32.6269C12.7681 32.6256 12.4157 32.5389 12.098 32.374L3.9818 27.0344C3.79893 26.9395 3.64562 26.7962 3.53862 26.6202C3.43162 26.4441 3.37502 26.242 3.375 26.036V5.24319C3.37498 5.04918 3.42514 4.85846 3.5206 4.68955C3.61606 4.52065 3.75358 4.37931 3.91981 4.27925C4.08603 4.17919 4.2753 4.12382 4.46924 4.11851C4.66318 4.11321 4.8552 4.15815 5.02664 4.24897L11.9173 8.73913C12.2333 8.9063 12.5847 8.99573 12.9423 9.00001C13.2998 9.00429 13.6532 8.9233 13.9732 8.76374ZM12.9375 8.99999V32.625V8.99999ZM23.0625 3.37499V27V3.37499Z" fill="#F7DBA7"/>
<path d="M12.9375 8.99999V32.625M23.0625 3.37499V27M13.9732 8.76374L22.0268 3.61124C22.3472 3.45121 22.7011 3.36996 23.0592 3.37425C23.4172 3.37853 23.7691 3.46821 24.0855 3.63585L32.0266 8.96413C32.2073 9.05984 32.3585 9.20297 32.4639 9.37814C32.5693 9.55331 32.625 9.7539 32.625 9.95835V30.7568C32.625 30.9508 32.5749 31.1415 32.4794 31.3104C32.3839 31.4793 32.2464 31.6207 32.0802 31.7207C31.914 31.8208 31.7247 31.8762 31.5308 31.8815C31.3368 31.8868 31.1448 31.8418 30.9734 31.751L24.0954 27.2658C23.7764 27.0968 23.4214 27.007 23.0603 27.004C22.6993 27.0011 22.3429 27.0851 22.0212 27.2489L14.156 32.3817C13.8371 32.5442 13.484 32.6283 13.1261 32.6269C12.7681 32.6256 12.4157 32.5389 12.098 32.374L3.9818 27.0344C3.79892 26.9395 3.64562 26.7962 3.53862 26.6202C3.43162 26.4441 3.37502 26.242 3.375 26.036V5.24319C3.37498 5.04918 3.42514 4.85846 3.5206 4.68955C3.61606 4.52065 3.75358 4.37931 3.91981 4.27925C4.08603 4.17919 4.2753 4.12382 4.46924 4.11851C4.66318 4.11321 4.8552 4.15815 5.02664 4.24897L11.9173 8.73913C12.2333 8.9063 12.5847 8.99573 12.9423 9.00001C13.2998 9.00429 13.6532 8.92329 13.9732 8.76374Z" stroke="black" stroke-linecap="round" stroke-linejoin="round"/>
</svg>
